<svg width="22" height="21" viewBox="0 0 22 21" fill="none" xmlns="http://www.w3.org/2000/svg">
<path d="M11.1523 0.249268C5.45877 0.249268 0.837891 4.87014 0.837891 10.5637C0.837891 16.2573 5.45877 20.8782 11.1523 20.8782C16.8459 20.8782 21.4668 16.2573 21.4668 10.5637C21.4668 4.87014 16.8459 0.249268 11.1523 0.249268ZM16.5674 10.9041C16.5674 11.327 16.2167 11.6777 15.7938 11.6777C15.371 11.6777 15.0203 11.327 15.0203 10.9041V7.78913L7.05751 15.7519C6.90279 15.9066 6.70681 15.9788 6.51084 15.9788C6.31487 15.9788 6.11889 15.9066 5.96417 15.7519C5.66505 15.4528 5.66505 14.9577 5.96417 14.6586L13.9269 6.6958H10.812C10.3891 6.6958 10.0384 6.34511 10.0384 5.92222C10.0384 5.49932 10.3891 5.14863 10.812 5.14863H15.7938C16.2167 5.14863 16.5674 5.49932 16.5674 5.92222V10.9041Z" fill="#1C1D4D"/>
</svg>
