<svg width="270" height="277" viewBox="0 0 270 277" fill="none" xmlns="http://www.w3.org/2000/svg">
<rect width="268.64" height="268.64" fill="url(#paint0_linear_1767_8569)"/>
<path fill-rule="evenodd" clip-rule="evenodd" d="M136.096 198.722C142.217 198.722 147.179 203.684 147.179 209.805V254.138C147.179 260.26 142.217 265.222 136.096 265.222C129.974 265.222 125.012 260.26 125.012 254.138V209.805C125.012 203.684 129.974 198.722 136.096 198.722Z" fill="white"/>
<path fill-rule="evenodd" clip-rule="evenodd" d="M195.4 144.009L239.733 160.634C244.059 162.255 246.925 166.391 246.925 171.011V254.136H224.758V178.692L187.616 164.763L195.4 144.009Z" fill="white"/>
<path fill-rule="evenodd" clip-rule="evenodd" d="M76.7927 144.009L32.4593 160.634C28.1334 162.255 25.2676 166.391 25.2676 171.011V254.136H47.4342V178.692L84.5758 164.763L76.7927 144.009Z" fill="white"/>
<path fill-rule="evenodd" clip-rule="evenodd" d="M14.1792 254.138C14.1792 248.017 19.1414 243.055 25.2625 243.055H246.929C253.051 243.055 258.013 248.017 258.013 254.138C258.013 260.26 253.051 265.222 246.929 265.222H25.2625C19.1414 265.222 14.1792 260.26 14.1792 254.138Z" fill="white"/>
<path fill-rule="evenodd" clip-rule="evenodd" d="M131.361 25.6394C133.602 24.0866 136.461 23.7312 139.014 24.6885L183.347 41.3135C186.592 42.5301 188.742 45.6317 188.742 49.0968V65.7218C188.742 70.3126 185.02 74.0343 180.429 74.0343H144.408V87.8884C144.408 92.4793 140.686 96.2009 136.096 96.2009C131.505 96.2009 127.783 92.4793 127.783 87.8884V32.4718C127.783 29.7454 129.12 27.1923 131.361 25.6394Z" fill="white"/>
<path fill-rule="evenodd" clip-rule="evenodd" d="M131.329 81.0783C134.191 79.0748 138.001 79.0748 140.863 81.0783L196.279 119.87C198.502 121.425 199.825 123.968 199.825 126.68V254.138C199.825 258.729 196.103 262.451 191.513 262.451H163.804V209.805C163.804 194.502 151.399 182.096 136.096 182.096C120.793 182.096 108.388 194.502 108.388 209.805V262.451H80.6792C76.0884 262.451 72.3667 258.729 72.3667 254.138V126.68C72.3667 123.968 73.6902 121.425 75.9123 119.87L131.329 81.0783ZM136.096 132.221C129.975 132.221 125.013 137.184 125.013 143.305C125.013 149.426 129.975 154.388 136.096 154.388H136.196C142.317 154.388 147.279 149.426 147.279 143.305C147.279 137.184 142.317 132.221 136.196 132.221H136.096Z" fill="white"/>
<defs>
<linearGradient id="paint0_linear_1767_8569" x1="134.32" y1="0" x2="134.32" y2="268.64" gradientUnits="userSpaceOnUse">
<stop stop-color="#1C1D4D" stop-opacity="0.15"/>
<stop offset="1" stop-color="#1C1D4D" stop-opacity="0"/>
</linearGradient>
</defs>
</svg>
