<svg width="271" height="270" viewBox="0 0 271 270" fill="none" xmlns="http://www.w3.org/2000/svg">
<rect x="0.614258" y="0.695801" width="268.64" height="268.64" fill="url(#paint0_linear_1018_3602)"/>
<path fill-rule="evenodd" clip-rule="evenodd" d="M135.154 13.1591C155.568 18.256 181.086 34.0158 191.017 47.6595C194.986 53.1131 197.553 59.0667 199.129 66.4781C200.101 71.0463 200.223 74.9769 199.852 89.65L199.406 107.32L201.98 108.809C206.997 111.711 207.911 118.705 204.457 127.756C202.995 131.588 186.838 158.228 179.634 168.688C177.734 171.445 174.662 175.355 172.807 177.374L169.436 181.046L171.725 184.179C176.942 191.321 183.886 197.708 190.275 201.242C196.283 204.567 205.37 207.366 220.567 210.576C228.399 212.23 237.93 214.558 241.748 215.749C254.349 219.681 271.118 228.08 270.217 230.38C269.979 230.988 269.784 240.002 269.784 250.411V269.335H134.699H0.614258V249.672V230.009L2.98906 228.252C7.7869 224.702 17.3205 221.333 44.8221 213.468C66.6901 207.214 74.0578 204.714 81.4723 201.034C91.9806 195.818 94.56 193.027 98.5541 182.55L100.916 176.355L96.5001 170.372C90.2613 161.918 72.4393 133.876 70.2318 129.038C67.5947 123.259 67.1782 116.533 69.2154 112.618C70.0681 110.979 71.984 108.826 73.4725 107.835L76.1783 106.032L75.9869 87.2151C75.8137 70.2411 75.9401 67.8499 77.2795 62.8003C79.2743 55.2808 82.4895 49.6087 88.1634 43.6006C95.7204 35.5989 104.163 30.3638 115.242 26.8114L119.152 25.5578L118.74 21.9058C118.513 19.8964 118.105 16.7216 117.832 14.8504L117.338 11.4478H122.819C126.198 11.4478 130.93 12.1039 135.154 13.1591Z" fill="white"/>
<defs>
<linearGradient id="paint0_linear_1018_3602" x1="134.934" y1="0.695801" x2="134.934" y2="269.335" gradientUnits="userSpaceOnUse">
<stop stop-color="#1C1D4D" stop-opacity="0.15"/>
<stop offset="1" stop-color="#1C1D4D" stop-opacity="0"/>
</linearGradient>
</defs>
</svg>
