<svg width="14" height="14" viewBox="0 0 14 14" fill="none" xmlns="http://www.w3.org/2000/svg">
<path d="M1.55016 13.9487C1.1817 13.9487 0.813251 13.813 0.522367 13.5221C-0.0400079 12.9597 -0.0400079 12.0289 0.522367 11.4665L11.4984 0.490507C12.0608 -0.0718682 12.9916 -0.0718682 13.554 0.490507C14.1163 1.05288 14.1163 1.98371 13.554 2.54608L2.57794 13.5221C2.30645 13.813 1.91861 13.9487 1.55016 13.9487Z" fill="#C00E1E"/>
<path d="M12.5262 13.9487C12.1577 13.9487 11.7893 13.813 11.4984 13.5221L0.522367 2.54608C-0.0400079 1.98371 -0.0400079 1.05288 0.522367 0.490507C1.08474 -0.0718682 2.01557 -0.0718682 2.57794 0.490507L13.554 11.4665C14.1163 12.0289 14.1163 12.9597 13.554 13.5221C13.2631 13.813 12.8946 13.9487 12.5262 13.9487Z" fill="#C00E1E"/>
</svg>
