<svg width="37" height="37" viewBox="0 0 37 37" fill="none" xmlns="http://www.w3.org/2000/svg">
<path d="M30.1323 36.1445H6.64915L7.36914 32.5199C7.55376 31.5907 8.38452 30.9138 9.33224 30.9138H27.4492C28.3969 30.9138 29.2277 31.5907 29.4123 32.5199L30.1323 36.1445ZM13.4182 20.4214C13.0982 20.2306 12.7905 20.0337 12.489 19.8306C12.4397 19.7937 12.3782 19.7629 12.329 19.726C12.2797 19.6952 12.2367 19.6583 12.1874 19.6214C12.052 19.5291 11.9228 19.4306 11.7997 19.3321C11.6766 19.2398 11.5597 19.1475 11.449 19.0552C11.3259 18.9567 11.1967 18.8521 11.0736 18.7414L9.09819 18.5752C5.01203 18.2183 1.92899 14.8583 1.92899 10.7538V5.837C1.92899 5.58469 2.13822 5.37545 2.39054 5.37545H5.62131V3.83701H0.390625V10.7601C0.390625 15.6646 4.0768 19.6831 8.9631 20.1076L13.5538 20.5076C13.5107 20.4768 13.4674 20.446 13.4182 20.4214ZM31.1598 3.83685V5.37529H34.3906C34.6429 5.37529 34.8522 5.58453 34.8522 5.83684V10.7536C34.8522 14.8583 31.7691 18.2182 27.683 18.575L25.6952 18.7474C25.3322 19.0735 24.926 19.3935 24.4522 19.7258C24.0953 19.9781 23.7199 20.212 23.3383 20.4335C23.2953 20.4581 23.2645 20.4828 23.2276 20.5074L27.8183 20.1074C32.7043 19.6828 36.3907 15.6644 36.3907 10.7598V3.83677L31.1598 3.83685ZM30.2367 0.144531V6.82142C30.2367 7.08604 30.2306 7.35682 30.2183 7.6214C30.1998 7.91679 30.169 8.21832 30.1383 8.51371C29.7506 11.886 28.2244 15.0307 25.7875 17.4123C25.5967 17.5969 25.4059 17.7754 25.209 17.9538H25.2028V17.96C24.8274 18.2984 24.409 18.6307 23.9228 18.9754C23.0674 19.5723 22.132 20.0892 21.1289 20.5138C20.9382 20.5938 20.772 20.7046 20.6489 20.8277L20.6366 20.84C20.6305 20.8461 20.6305 20.8523 20.6243 20.8584C20.2797 21.1969 20.0889 21.6769 20.1197 22.1569L20.2551 24.4646C20.3412 26.0092 21.6213 27.2215 23.172 27.2215H24.0028C24.8643 27.2215 25.6274 27.7692 25.8982 28.5939L26.3659 29.9908H10.4151L10.8827 28.5877C11.1535 27.7693 11.9166 27.2215 12.7781 27.2215H13.6089C15.1597 27.2215 16.4397 26.0092 16.5258 24.4646L16.6612 22.163C16.6797 21.8923 16.6304 21.6276 16.5381 21.4123C16.4089 21.0984 16.1935 20.84 15.9228 20.6615C15.8428 20.6062 15.7504 20.5569 15.652 20.5138C15.6397 20.5077 15.6335 20.5015 15.6274 20.5015C15.3874 20.4031 15.1535 20.2923 14.9197 20.1815C14.9074 20.1754 14.8889 20.1631 14.8766 20.1569C14.5812 20.0154 14.292 19.8615 14.0089 19.7016C13.8304 19.5969 13.652 19.4923 13.4796 19.3877C13.3689 19.3139 13.2581 19.24 13.1535 19.1662C13.012 19.0739 12.8766 18.9816 12.7412 18.8831C12.5996 18.7846 12.4643 18.68 12.335 18.5816L12.0581 18.36C11.892 18.2246 11.7258 18.0892 11.572 17.9539C11.0119 17.4554 10.495 16.92 10.015 16.3539C9.97196 16.3046 9.92888 16.2554 9.88581 16.2C9.76888 16.0585 9.65196 15.9046 9.53504 15.7508C9.46734 15.6647 9.39965 15.5723 9.33811 15.48C9.23965 15.3447 9.14119 15.2031 9.04273 15.0616C8.96273 14.9446 8.88888 14.8216 8.81504 14.6985C8.73504 14.5754 8.65504 14.4523 8.58119 14.3293C8.44581 14.0954 8.31042 13.8492 8.18734 13.6093C8.13196 13.4985 8.08273 13.3939 8.02734 13.2831C7.9535 13.1231 7.8735 12.957 7.79965 12.7908C7.75042 12.68 7.70119 12.5631 7.65196 12.4462C7.58426 12.2739 7.52273 12.1077 7.45503 11.9354C7.41811 11.8246 7.37504 11.7139 7.33811 11.6031C7.26426 11.3939 7.20272 11.1846 7.14119 10.9692C7.11657 10.8954 7.09196 10.8216 7.07349 10.7477C6.99349 10.4646 6.9258 10.1816 6.86426 9.89231C6.8458 9.8 6.83349 9.70154 6.81503 9.60923C6.77195 9.4 6.73503 9.19692 6.70426 8.9877C6.69195 8.87694 6.67965 8.77232 6.66118 8.66155C6.63657 8.45232 6.6181 8.24309 6.59964 8.03384C6.59349 7.93538 6.58118 7.83691 6.57503 7.7446C6.55657 7.43691 6.54426 7.12922 6.54426 6.8215V0.144614L30.2367 0.144531Z" fill="url(#paint0_linear_2284_2943)"/>
<path d="M19.8917 14.8512L19.8917 14.8512L19.8921 14.8531C19.9175 14.9632 19.9714 15.0657 20.0667 15.1386C20.1608 15.2106 20.2737 15.2369 20.3861 15.2369H23.3073C23.4133 15.2369 23.5302 15.2148 23.6222 15.1359C23.7201 15.052 23.7536 14.9357 23.7536 14.8257C23.7536 14.7768 23.7467 14.7232 23.7253 14.6712L20.6154 2.89922C20.5905 2.79367 20.5402 2.69348 20.4507 2.62072C20.3596 2.54674 20.2497 2.51875 20.1398 2.51875H16.6555C16.5456 2.51875 16.4357 2.54674 16.3446 2.62072C16.2551 2.69345 16.2048 2.79358 16.1799 2.89907L13.0483 14.6864L13.0483 14.6864L13.0476 14.6892C13.0166 14.813 13.0156 14.9492 13.0877 15.0694L13.1004 15.0905L13.1178 15.1079C13.2155 15.2056 13.3457 15.2369 13.4704 15.2369H16.3563C16.4688 15.2369 16.5816 15.2106 16.6758 15.1386C16.771 15.0657 16.825 14.9632 16.8504 14.8531L16.8504 14.8531L16.8513 14.8488L17.1181 13.5651H19.6077L19.8917 14.8512ZM17.6028 10.631C17.6028 10.631 17.6033 10.631 17.6042 10.6311L17.6028 10.631ZM17.7208 10.6311L18.3462 7.67467L18.9859 10.6311H17.7208Z" fill="white" stroke="black" stroke-width="0.4"/>
<defs>
<linearGradient id="paint0_linear_2284_2943" x1="18.3907" y1="0.144531" x2="18.3907" y2="36.1445" gradientUnits="userSpaceOnUse">
<stop stop-color="#FFB82D"/>
<stop offset="0.485" stop-color="#FFA124"/>
<stop offset="1" stop-color="#FF744A"/>
</linearGradient>
</defs>
</svg>
