<svg width="29" height="29" viewBox="0 0 29 29" fill="none" xmlns="http://www.w3.org/2000/svg">
<path d="M23.8404 28.1611H5.57575L6.13575 25.342C6.27934 24.6192 6.92548 24.0928 7.66259 24.0928H21.7536C22.4907 24.0928 23.1368 24.6193 23.2804 25.342L23.8404 28.1611ZM10.8406 15.932C10.5917 15.7836 10.3523 15.6305 10.1178 15.4725C10.0795 15.4438 10.0317 15.4199 9.99338 15.3911C9.95509 15.3672 9.92158 15.3385 9.88329 15.3098C9.77799 15.238 9.67748 15.1614 9.58175 15.0848C9.48603 15.013 9.39508 14.9412 9.30893 14.8694C9.21321 14.7929 9.11269 14.7115 9.01697 14.6253L7.48056 14.4961C4.30243 14.2185 1.90452 11.6052 1.90452 8.41278V4.58861C1.90452 4.39237 2.06725 4.22963 2.2635 4.22963H4.77632V3.03306H0.708008V8.41765C0.708008 12.2323 3.57503 15.3578 7.37549 15.688L10.946 15.9991C10.9125 15.9752 10.8789 15.9511 10.8406 15.932ZM24.6396 3.03294V4.2295H27.1524C27.3487 4.2295 27.5114 4.39224 27.5114 4.58849V8.41266C27.5114 11.6052 25.1135 14.2184 21.9354 14.496L20.3894 14.63C20.107 14.8837 19.7911 15.1326 19.4226 15.391C19.1449 15.5873 18.853 15.7692 18.5562 15.9415C18.5227 15.9606 18.4988 15.9798 18.4701 15.9989L22.0406 15.6878C25.8409 15.3575 28.7081 12.2321 28.7081 8.41747V3.03287L24.6396 3.03294ZM23.9217 0.161133V5.35427C23.9217 5.56008 23.9169 5.77069 23.9073 5.97648C23.8929 6.20622 23.869 6.44075 23.8451 6.67049C23.5435 9.2934 22.3565 11.7393 20.4611 13.5916C20.3127 13.7352 20.1643 13.874 20.0112 14.0128H20.0064V14.0176C19.7144 14.2808 19.3889 14.5393 19.0108 14.8073C18.3455 15.2716 17.618 15.6737 16.8378 16.0039C16.6894 16.0661 16.5602 16.1523 16.4645 16.248L16.4549 16.2576C16.4501 16.2624 16.4501 16.2672 16.4453 16.2719C16.1773 16.5352 16.0289 16.9085 16.0528 17.2819L16.1581 19.0767C16.2252 20.2781 17.2207 21.221 18.4269 21.221H19.073C19.7431 21.221 20.3366 21.647 20.5472 22.2884L20.911 23.3749H8.50479L8.86855 22.2836C9.07915 21.647 9.67265 21.221 10.3427 21.221H10.9889C12.1951 21.221 13.1906 20.2781 13.2576 19.0767L13.3629 17.2866C13.3773 17.076 13.339 16.8702 13.2672 16.7027C13.1667 16.4586 12.9991 16.2576 12.7885 16.1188C12.7263 16.0757 12.6545 16.0374 12.578 16.0039C12.5684 15.9991 12.5636 15.9944 12.5588 15.9944C12.3721 15.9178 12.1903 15.8316 12.0084 15.7455C11.9988 15.7407 11.9844 15.7311 11.9749 15.7263C11.7451 15.6162 11.5202 15.4966 11.3 15.3722C11.1612 15.2908 11.0224 15.2094 10.8884 15.128C10.8022 15.0706 10.716 15.0132 10.6347 14.9557C10.5246 14.8839 10.4193 14.8122 10.314 14.7356C10.2039 14.659 10.0986 14.5776 9.99811 14.501L9.78272 14.3287C9.65349 14.2234 9.52426 14.1181 9.4046 14.0128C8.96903 13.6252 8.56698 13.2087 8.19366 12.7684C8.16015 12.7301 8.12665 12.6918 8.09315 12.6487C8.00221 12.5387 7.91127 12.419 7.82033 12.2993C7.76768 12.2323 7.71503 12.1605 7.66717 12.0887C7.59058 11.9835 7.514 11.8734 7.43742 11.7633C7.3752 11.6723 7.31776 11.5766 7.26033 11.4809C7.19811 11.3852 7.13588 11.2894 7.07845 11.1937C6.97315 11.0118 6.86785 10.8204 6.77212 10.6337C6.72905 10.5476 6.69076 10.4662 6.64768 10.38C6.59024 10.2556 6.52802 10.1264 6.47058 9.99713C6.43229 9.91097 6.394 9.82003 6.35571 9.72909C6.30306 9.59507 6.2552 9.46584 6.20255 9.33182C6.17383 9.24567 6.14033 9.15951 6.11161 9.07336C6.05417 8.91062 6.00631 8.74789 5.95844 8.58036C5.9393 8.52292 5.92015 8.46549 5.90579 8.40805C5.84357 8.18788 5.79092 7.96771 5.74306 7.74274C5.7287 7.67094 5.71913 7.59436 5.70477 7.52257C5.67126 7.35983 5.64255 7.20188 5.61861 7.03916C5.60904 6.953 5.59947 6.87163 5.58511 6.78548C5.56596 6.62275 5.5516 6.46001 5.53724 6.29726C5.53246 6.22068 5.52288 6.1441 5.5181 6.0723C5.50374 5.83298 5.49417 5.59367 5.49417 5.35433V0.161197L23.9217 0.161133Z" fill="url(#paint0_linear_0_3046)"/>
<path d="M14.1563 8.2465L15.2524 11.4961C15.2525 11.4962 15.2525 11.4964 15.2526 11.4965C15.2807 11.5806 15.3302 11.6591 15.4092 11.7148C15.4879 11.7704 15.5782 11.791 15.6662 11.791H17.8403C17.9174 11.791 18.012 11.7771 18.0907 11.7166C18.1794 11.6484 18.2116 11.5501 18.2116 11.4592C18.2116 11.408 18.2053 11.3551 18.1882 11.3037L18.1883 11.3037L18.1855 11.2961L16.8625 7.80265C17.2587 7.56038 17.5694 7.23377 17.7917 6.82499C18.0383 6.37883 18.1589 5.87056 18.1589 5.30579C18.1589 4.69856 18.0346 4.15568 17.7795 3.68305C17.525 3.20268 17.1648 2.82781 16.7009 2.56272C16.2364 2.29728 15.705 2.16743 15.1128 2.16743H11.6342C11.533 2.16743 11.4289 2.19758 11.3478 2.27872C11.2667 2.35985 11.2365 2.46389 11.2365 2.56508V11.3933C11.2365 11.4945 11.2667 11.5986 11.3478 11.6797C11.4289 11.7608 11.533 11.791 11.6342 11.791H13.7161C13.8172 11.791 13.9213 11.7608 14.0024 11.6797C14.0836 11.5986 14.1137 11.4945 14.1137 11.3933V8.2465H14.1563ZM15.1252 4.84992L15.1252 4.84998L15.1295 4.85427C15.2325 4.9573 15.2949 5.10776 15.2949 5.33214C15.2949 5.54554 15.2338 5.69254 15.1295 5.79684C15.0224 5.90391 14.8824 5.96226 14.6911 5.96226H14.1137V4.68885H14.6911C14.8938 4.68885 15.0299 4.74865 15.1252 4.84992Z" fill="white" stroke="black" stroke-width="0.4"/>
<defs>
<linearGradient id="paint0_linear_0_3046" x1="14.7081" y1="0.161133" x2="14.7081" y2="28.1611" gradientUnits="userSpaceOnUse">
<stop stop-color="#FFB82D"/>
<stop offset="0.485" stop-color="#FFA124"/>
<stop offset="1" stop-color="#FF744A"/>
</linearGradient>
</defs>
</svg>
