<svg width="161" height="130" viewBox="0 0 161 130" fill="none" xmlns="http://www.w3.org/2000/svg">
<path opacity="0.1" d="M10.4844 1.13574C5.23767 1.13574 0.984375 5.38903 0.984375 10.6357V119.53C0.984375 124.776 5.23767 129.03 10.4844 129.03H150.125C155.372 129.03 159.625 124.776 159.625 119.53V10.6357C159.625 5.38904 155.372 1.13574 150.125 1.13574H10.4844Z" stroke="#1C1D4D"/>
<path d="M6.70117 20.6567C6.70117 17.8953 8.93975 15.6567 11.7012 15.6567H31.743V123.35H12.7012C9.38746 123.35 6.70117 120.663 6.70117 117.35V20.6567Z" fill="#1C1D4D"/>
<path d="M31.7793 15.6567H148.945C151.707 15.6567 153.945 17.8953 153.945 20.6567V119.35C153.945 121.559 152.154 123.35 149.945 123.35H31.7793V15.6567Z" fill="url(#paint0_linear_0_7073)"/>
<rect opacity="0.08" x="49.9688" y="26.4011" width="90.3965" height="12.7225" fill="white"/>
<rect opacity="0.08" x="49.9688" y="47.0229" width="60.7694" height="59.8016" fill="white"/>
<circle cx="14.3472" cy="8.57623" r="2.14215" fill="#C00E1E"/>
<circle cx="20.3726" cy="8.57623" r="2.14215" fill="#FFD000"/>
<circle cx="26.398" cy="8.57623" r="2.14215" fill="#2BB650"/>
<defs>
<linearGradient id="paint0_linear_0_7073" x1="153.945" y1="69.5032" x2="31.7793" y2="69.5032" gradientUnits="userSpaceOnUse">
<stop stop-color="#1C1D4D"/>
<stop offset="1" stop-color="#292A5C"/>
</linearGradient>
</defs>
</svg>
