<svg width="161" height="130" viewBox="0 0 161 130" fill="none" xmlns="http://www.w3.org/2000/svg">
<g id="Group 1000003067">
<path id="Rectangle 2815" d="M10.5996 1.13574C5.35291 1.13574 1.09961 5.38903 1.09961 10.6357V119.53C1.09961 124.776 5.35291 129.03 10.5996 129.03H150.24C155.487 129.03 159.74 124.776 159.74 119.53V10.6357C159.74 5.38904 155.487 1.13574 150.24 1.13574H10.5996Z" stroke="#1C1D4D"/>
<path id="Rectangle 2819" d="M6.81641 20.6567C6.81641 17.8953 9.05498 15.6567 11.8164 15.6567H31.8582V123.35H12.8164C9.50269 123.35 6.81641 120.663 6.81641 117.35V20.6567Z" fill="#1C1D4D"/>
<path id="Rectangle 2816" opacity="0.06" d="M32.7402 15.6567H150.061C152.27 15.6567 154.061 17.4476 154.061 19.6567V119.35C154.061 121.559 152.27 123.35 150.061 123.35H32.7402V15.6567Z" fill="#1C1D4D"/>
<g id="Group 1000003066">
<rect id="Rectangle 2817" x="50.084" y="26.4011" width="90.3965" height="12.7225" fill="white"/>
<rect id="Rectangle 2818" x="50.084" y="47.0229" width="60.7694" height="59.8016" fill="white"/>
</g>
<circle id="Ellipse 2353" cx="14.4625" cy="8.57623" r="2.14215" fill="#C00E1E"/>
<circle id="Ellipse 2354" cx="20.4878" cy="8.57623" r="2.14215" fill="#FFD000"/>
<circle id="Ellipse 2355" cx="26.5132" cy="8.57623" r="2.14215" fill="#2BB650"/>
</g>
</svg>
