<svg width="36" height="37" viewBox="0 0 36 37" fill="none" xmlns="http://www.w3.org/2000/svg">
<circle cx="18.083" cy="18.3877" r="11.917" fill="white"/>
<path d="M19.125 24.4178H20.1C21.075 24.4178 21.885 23.5478 21.885 22.4978C21.885 21.1928 21.42 20.9378 20.655 20.6678L19.14 20.1428V24.4178H19.125Z" fill="url(#paint0_linear_0_7198)"/>
<path d="M17.9551 3.38772C9.6751 3.41772 2.9701 10.1527 3.0001 18.4327C3.0301 26.7127 9.7651 33.4177 18.0451 33.3877C26.3251 33.3577 33.0301 26.6227 33.0001 18.3427C32.9701 10.0627 26.2351 3.37272 17.9551 3.38772ZM21.3901 18.5377C22.5601 18.9427 24.1351 19.8127 24.1351 22.4977C24.1351 24.8077 22.3201 26.6677 20.1001 26.6677H19.1251V27.5377C19.1251 28.1527 18.6151 28.6627 18.0001 28.6627C17.3851 28.6627 16.8751 28.1527 16.8751 27.5377V26.6677H16.3351C13.8751 26.6677 11.8801 24.5977 11.8801 22.0477C11.8801 21.4327 12.3901 20.9227 13.0051 20.9227C13.6201 20.9227 14.1301 21.4327 14.1301 22.0477C14.1301 23.3527 15.1201 24.4177 16.3351 24.4177H16.8751V19.3477L14.6101 18.5377C13.4401 18.1327 11.8651 17.2627 11.8651 14.5777C11.8651 12.2677 13.6801 10.4077 15.9001 10.4077H16.8751V9.53772C16.8751 8.92272 17.3851 8.41272 18.0001 8.41272C18.6151 8.41272 19.1251 8.92272 19.1251 9.53772V10.4077H19.6651C22.1251 10.4077 24.1201 12.4777 24.1201 15.0277C24.1201 15.6427 23.6101 16.1527 22.9951 16.1527C22.3801 16.1527 21.8701 15.6427 21.8701 15.0277C21.8701 13.7227 20.8801 12.6577 19.6651 12.6577H19.1251V17.7277L21.3901 18.5377Z" fill="url(#paint1_linear_0_7198)"/>
<path d="M14.1299 14.593C14.1299 15.898 14.5949 16.153 15.3599 16.423L16.8749 16.948V12.658H15.8999C14.9249 12.658 14.1299 13.528 14.1299 14.593Z" fill="url(#paint2_linear_0_7198)"/>
<defs>
<linearGradient id="paint0_linear_0_7198" x1="20.505" y1="20.1428" x2="20.505" y2="24.4178" gradientUnits="userSpaceOnUse">
<stop stop-color="#FFCD42"/>
<stop offset="1" stop-color="#FF8419"/>
</linearGradient>
<linearGradient id="paint1_linear_0_7198" x1="18.0001" y1="3.3877" x2="18.0001" y2="33.3878" gradientUnits="userSpaceOnUse">
<stop stop-color="#FFCD42"/>
<stop offset="1" stop-color="#FF8419"/>
</linearGradient>
<linearGradient id="paint2_linear_0_7198" x1="15.5024" y1="12.658" x2="15.5024" y2="16.948" gradientUnits="userSpaceOnUse">
<stop stop-color="#FFCD42"/>
<stop offset="1" stop-color="#FF8419"/>
</linearGradient>
</defs>
</svg>
