<svg width="10" height="6" viewBox="0 0 10 6" fill="none" xmlns="http://www.w3.org/2000/svg">
<path d="M9.57332 0.516545L9.26137 0.20243C9.16319 0.104332 9.03258 0.0502886 8.89298 0.0502886C8.75346 0.0502886 8.62269 0.104332 8.52451 0.20243L4.96603 3.76106L1.40345 0.198481C1.30543 0.100383 1.17466 0.0464172 1.03514 0.0464172C0.895616 0.0464172 0.764767 0.100383 0.666669 0.198481L0.354644 0.510661C0.151479 0.713671 0.151479 1.04436 0.354644 1.24736L4.59632 5.5043C4.69435 5.60232 4.82496 5.67138 4.96572 5.67138H4.96735C5.10695 5.67138 5.23756 5.60224 5.33558 5.5043L9.57332 1.2589C9.67149 1.16088 9.72538 1.02631 9.72553 0.886794C9.72553 0.747196 9.67149 0.614488 9.57332 0.516545Z" fill="#1C1D4D"/>
</svg>
