<svg width="97" height="25" viewBox="0 0 97 25" fill="none" xmlns="http://www.w3.org/2000/svg">
<path d="M13.1665 0.727051H96.1527L83.8583 24.1233H0.87207L13.1665 0.727051Z" fill="white"/>
<path d="M19.4443 17.425L21.1396 7.2395H28.0918L27.75 9.24243H23.2656L22.917 11.3274H26.9775L26.6357 13.3303H22.5889L21.9121 17.425H19.4443ZM32.1045 17.5618C31.1657 17.5618 30.3545 17.3521 29.6709 16.9329C28.9873 16.509 28.4906 15.8961 28.1807 15.094C27.8753 14.2919 27.8161 13.3212 28.0029 12.1819C28.1852 11.0836 28.5452 10.1584 29.083 9.40649C29.6253 8.64998 30.2861 8.07804 31.0654 7.69067C31.8493 7.29875 32.6878 7.10278 33.5811 7.10278C34.5153 7.10278 35.3219 7.31242 36.001 7.73169C36.6846 8.15096 37.1813 8.76164 37.4912 9.56372C37.8011 10.3658 37.8604 11.3433 37.6689 12.4963C37.4867 13.5901 37.1243 14.5152 36.582 15.2717C36.0397 16.0237 35.3789 16.5933 34.5996 16.9807C33.8249 17.3681 32.9932 17.5618 32.1045 17.5618ZM32.2002 15.4084C32.7152 15.4084 33.1777 15.2831 33.5879 15.0325C33.998 14.7818 34.3421 14.4172 34.6201 13.9387C34.8981 13.4556 35.0941 12.87 35.208 12.1819C35.3128 11.5393 35.3128 11.0015 35.208 10.5686C35.1077 10.1357 34.9095 9.80981 34.6133 9.59106C34.3216 9.36776 33.9434 9.2561 33.4785 9.2561C32.9681 9.2561 32.5055 9.38371 32.0908 9.63892C31.6807 9.88957 31.3366 10.2564 31.0586 10.7395C30.7806 11.218 30.5824 11.8036 30.4639 12.4963C30.359 13.1344 30.3568 13.6698 30.457 14.1028C30.5618 14.5312 30.7624 14.857 31.0586 15.0803C31.3548 15.2991 31.7354 15.4084 32.2002 15.4084ZM37.8877 17.425L39.583 7.2395H42.0371L40.6904 15.4221H44.9287L44.5938 17.425H37.8877ZM45.4756 17.425L47.1709 7.2395H49.625L48.2783 15.4221H52.5166L52.1816 17.425H45.4756ZM57.5342 17.5618C56.5954 17.5618 55.7842 17.3521 55.1006 16.9329C54.417 16.509 53.9202 15.8961 53.6104 15.094C53.305 14.2919 53.2458 13.3212 53.4326 12.1819C53.6149 11.0836 53.9749 10.1584 54.5127 9.40649C55.055 8.64998 55.7158 8.07804 56.4951 7.69067C57.279 7.29875 58.1175 7.10278 59.0107 7.10278C59.945 7.10278 60.7516 7.31242 61.4307 7.73169C62.1143 8.15096 62.611 8.76164 62.9209 9.56372C63.2308 10.3658 63.29 11.3433 63.0986 12.4963C62.9163 13.5901 62.554 14.5152 62.0117 15.2717C61.4694 16.0237 60.8086 16.5933 60.0293 16.9807C59.2546 17.3681 58.4229 17.5618 57.5342 17.5618ZM57.6299 15.4084C58.1449 15.4084 58.6074 15.2831 59.0176 15.0325C59.4277 14.7818 59.7718 14.4172 60.0498 13.9387C60.3278 13.4556 60.5238 12.87 60.6377 12.1819C60.7425 11.5393 60.7425 11.0015 60.6377 10.5686C60.5374 10.1357 60.3392 9.80981 60.043 9.59106C59.7513 9.36776 59.373 9.2561 58.9082 9.2561C58.3978 9.2561 57.9352 9.38371 57.5205 9.63892C57.1104 9.88957 56.7663 10.2564 56.4883 10.7395C56.2103 11.218 56.012 11.8036 55.8936 12.4963C55.7887 13.1344 55.7865 13.6698 55.8867 14.1028C55.9915 14.5312 56.1921 14.857 56.4883 15.0803C56.7845 15.2991 57.165 15.4084 57.6299 15.4084ZM65.2451 17.425L63.9736 7.2395H66.6875L67.125 13.9114H67.207L70.0576 7.2395H72.2861L72.9355 13.9319H73.0244L75.6562 7.2395H78.3838L73.7217 17.425H71.3564L70.5566 11.2522H70.4746L67.6104 17.425H65.2451Z" fill="black"/>
</svg>
