<svg width="33" height="33" viewBox="0 0 33 33" fill="none" xmlns="http://www.w3.org/2000/svg">
<circle cx="16.4" cy="16.3585" r="16.0485" fill="#1C1D4D" fill-opacity="0.09"/>
<mask id="path-2-inside-1_2469_3422" fill="white">
<path d="M28.9837 26.3187C30.8579 23.9508 32.026 21.1021 32.3537 18.1C32.6814 15.098 32.1554 12.0644 30.8362 9.34787C29.517 6.63136 27.4581 4.3422 24.8961 2.74347C22.3341 1.14473 19.373 0.30131 16.3532 0.310127L16.4 16.3585L28.9837 26.3187Z"/>
</mask>
<path d="M28.9837 26.3187C30.8579 23.9508 32.026 21.1021 32.3537 18.1C32.6814 15.098 32.1554 12.0644 30.8362 9.34787C29.517 6.63136 27.4581 4.3422 24.8961 2.74347C22.3341 1.14473 19.373 0.30131 16.3532 0.310127L16.4 16.3585L28.9837 26.3187Z" fill="#2BB650" stroke="#2BB650" stroke-width="2" mask="url(#path-2-inside-1_2469_3422)"/>
</svg>
