<svg width="251" height="38" viewBox="0 0 251 38" fill="none" xmlns="http://www.w3.org/2000/svg">
<g filter="url(#filter0_b_0_6572)">
<path d="M250.382 0.82373H0.0983734V37.0151H250.382V0.82373Z" fill="url(#paint0_linear_0_6572)" fill-opacity="0.9"/>
</g>
<path d="M71.722 12.8194C71.782 12.8194 71.83 12.8434 71.866 12.8914C71.914 12.9274 71.938 12.9754 71.938 13.0354V14.4214C71.938 14.4814 71.914 14.5354 71.866 14.5834C71.83 14.6194 71.782 14.6374 71.722 14.6374H68.932C68.872 14.6374 68.842 14.6674 68.842 14.7274V25.2034C68.842 25.2634 68.818 25.3174 68.77 25.3654C68.734 25.4014 68.686 25.4194 68.626 25.4194H66.97C66.91 25.4194 66.856 25.4014 66.808 25.3654C66.772 25.3174 66.754 25.2634 66.754 25.2034V14.7274C66.754 14.6674 66.724 14.6374 66.664 14.6374H63.982C63.922 14.6374 63.868 14.6194 63.82 14.5834C63.784 14.5354 63.766 14.4814 63.766 14.4214V13.0354C63.766 12.9754 63.784 12.9274 63.82 12.8914C63.868 12.8434 63.922 12.8194 63.982 12.8194H71.722ZM76.9173 16.0774C77.7933 16.0774 78.4773 16.3534 78.9693 16.9054C79.4613 17.4574 79.7073 18.2194 79.7073 19.1914V25.2034C79.7073 25.2634 79.6833 25.3174 79.6353 25.3654C79.5993 25.4014 79.5513 25.4194 79.4913 25.4194H77.8353C77.7753 25.4194 77.7213 25.4014 77.6733 25.3654C77.6373 25.3174 77.6193 25.2634 77.6193 25.2034V19.4794C77.6193 18.9874 77.4933 18.5974 77.2413 18.3094C77.0013 18.0214 76.6713 17.8774 76.2513 17.8774C75.8193 17.8774 75.4713 18.0274 75.2073 18.3274C74.9553 18.6154 74.8293 19.0054 74.8293 19.4974V25.2034C74.8293 25.2634 74.8053 25.3174 74.7573 25.3654C74.7213 25.4014 74.6733 25.4194 74.6133 25.4194H72.9573C72.8973 25.4194 72.8433 25.4014 72.7953 25.3654C72.7593 25.3174 72.7413 25.2634 72.7413 25.2034V13.0354C72.7413 12.9754 72.7593 12.9274 72.7953 12.8914C72.8433 12.8434 72.8973 12.8194 72.9573 12.8194H74.6133C74.6733 12.8194 74.7213 12.8434 74.7573 12.8914C74.8053 12.9274 74.8293 12.9754 74.8293 13.0354V16.9054C74.8293 16.9414 74.8413 16.9654 74.8653 16.9774C74.8893 16.9894 74.9133 16.9774 74.9373 16.9414C75.4173 16.3654 76.0773 16.0774 76.9173 16.0774ZM81.9971 14.9614C81.6251 14.9614 81.3191 14.8414 81.0791 14.6014C80.8511 14.3614 80.7371 14.0554 80.7371 13.6834C80.7371 13.3114 80.8511 13.0054 81.0791 12.7654C81.3191 12.5254 81.6251 12.4054 81.9971 12.4054C82.3811 12.4054 82.6871 12.5254 82.9151 12.7654C83.1551 12.9934 83.2751 13.2994 83.2751 13.6834C83.2751 14.0554 83.1551 14.3614 82.9151 14.6014C82.6751 14.8414 82.3691 14.9614 81.9971 14.9614ZM81.1691 25.4194C81.1091 25.4194 81.0551 25.4014 81.0071 25.3654C80.9711 25.3174 80.9531 25.2634 80.9531 25.2034V16.4194C80.9531 16.3594 80.9711 16.3114 81.0071 16.2754C81.0551 16.2274 81.1091 16.2034 81.1691 16.2034H82.8251C82.8851 16.2034 82.9331 16.2274 82.9691 16.2754C83.0171 16.3114 83.0411 16.3594 83.0411 16.4194V25.2034C83.0411 25.2634 83.0171 25.3174 82.9691 25.3654C82.9331 25.4014 82.8851 25.4194 82.8251 25.4194H81.1691ZM87.4934 25.5274C86.4494 25.5274 85.6154 25.2934 84.9914 24.8254C84.3674 24.3574 84.0554 23.7454 84.0554 22.9894V22.8454C84.0554 22.7854 84.0734 22.7374 84.1094 22.7014C84.1574 22.6534 84.2114 22.6294 84.2714 22.6294H85.8374C85.8974 22.6294 85.9454 22.6534 85.9814 22.7014C86.0294 22.7374 86.0534 22.7854 86.0534 22.8454V22.8994C86.0534 23.1874 86.1914 23.4394 86.4674 23.6554C86.7434 23.8594 87.0854 23.9614 87.4934 23.9614C87.8894 23.9614 88.2074 23.8654 88.4474 23.6734C88.6994 23.4814 88.8254 23.2414 88.8254 22.9534C88.8254 22.6654 88.6994 22.4434 88.4474 22.2874C88.2074 22.1314 87.8294 21.9634 87.3134 21.7834L86.8454 21.6214C86.0294 21.3574 85.3754 21.0274 84.8834 20.6314C84.3914 20.2234 84.1454 19.6234 84.1454 18.8314C84.1454 17.9914 84.4454 17.3314 85.0454 16.8514C85.6454 16.3594 86.4374 16.1134 87.4214 16.1134C88.4414 16.1134 89.2514 16.3654 89.8514 16.8694C90.4634 17.3614 90.7694 18.0214 90.7694 18.8494V18.8674C90.7694 18.9274 90.7454 18.9814 90.6974 19.0294C90.6614 19.0654 90.6134 19.0834 90.5534 19.0834H89.0414C88.9814 19.0834 88.9274 19.0654 88.8794 19.0294C88.8434 18.9814 88.8254 18.9274 88.8254 18.8674V18.7954C88.8254 18.4954 88.6994 18.2494 88.4474 18.0574C88.1954 17.8534 87.8654 17.7514 87.4574 17.7514C87.0614 17.7514 86.7434 17.8474 86.5034 18.0394C86.2634 18.2194 86.1434 18.4534 86.1434 18.7414C86.1434 18.9694 86.2274 19.1614 86.3954 19.3174C86.5634 19.4614 86.7494 19.5754 86.9534 19.6594C87.1694 19.7434 87.5414 19.8754 88.0694 20.0554C88.6334 20.2474 89.1074 20.4454 89.4914 20.6494C89.8874 20.8534 90.2234 21.1354 90.4994 21.4954C90.7754 21.8554 90.9134 22.3114 90.9134 22.8634C90.9134 23.6914 90.6014 24.3454 89.9774 24.8254C89.3654 25.2934 88.5374 25.5274 87.4934 25.5274ZM101.632 18.8134C101.764 19.4254 101.83 20.1034 101.83 20.8474C101.83 21.5434 101.776 22.1974 101.668 22.8094C101.296 24.6454 100.324 25.5634 98.7521 25.5634C97.9121 25.5634 97.2821 25.2934 96.8621 24.7534C96.8381 24.7174 96.8141 24.7054 96.7901 24.7174C96.7661 24.7174 96.7541 24.7354 96.7541 24.7714V28.6054C96.7541 28.6654 96.7301 28.7134 96.6821 28.7494C96.6461 28.7974 96.5981 28.8214 96.5381 28.8214H94.8821C94.8221 28.8214 94.7681 28.7974 94.7201 28.7494C94.6841 28.7134 94.6661 28.6654 94.6661 28.6054V16.4374C94.6661 16.3774 94.6841 16.3294 94.7201 16.2934C94.7681 16.2454 94.8221 16.2214 94.8821 16.2214H96.5381C96.5981 16.2214 96.6461 16.2454 96.6821 16.2934C96.7301 16.3294 96.7541 16.3774 96.7541 16.4374V16.9054C96.7541 16.9414 96.7661 16.9654 96.7901 16.9774C96.8141 16.9894 96.8381 16.9774 96.8621 16.9414C97.3181 16.3654 97.9721 16.0774 98.8241 16.0774C99.5681 16.0774 100.168 16.3054 100.624 16.7614C101.092 17.2174 101.428 17.9014 101.632 18.8134ZM99.5081 22.7014C99.6521 22.2334 99.7241 21.6094 99.7241 20.8294C99.7241 20.0494 99.6641 19.4494 99.5441 19.0294C99.3281 18.2494 98.8841 17.8594 98.2121 17.8594C97.5641 17.8594 97.1441 18.2434 96.9521 19.0114C96.8321 19.4314 96.7721 20.0374 96.7721 20.8294C96.7721 21.6334 96.8381 22.2454 96.9701 22.6654C97.1621 23.3974 97.5701 23.7634 98.1941 23.7634C98.8181 23.7634 99.2561 23.4094 99.5081 22.7014ZM103.071 25.4194C103.011 25.4194 102.957 25.4014 102.909 25.3654C102.873 25.3174 102.855 25.2634 102.855 25.2034V13.0354C102.855 12.9754 102.873 12.9274 102.909 12.8914C102.957 12.8434 103.011 12.8194 103.071 12.8194H104.727C104.787 12.8194 104.835 12.8434 104.871 12.8914C104.919 12.9274 104.943 12.9754 104.943 13.0354V25.2034C104.943 25.2634 104.919 25.3174 104.871 25.3654C104.835 25.4014 104.787 25.4194 104.727 25.4194H103.071ZM109.421 16.0774C110.105 16.0774 110.711 16.2094 111.239 16.4734C111.767 16.7254 112.175 17.0794 112.463 17.5354C112.763 17.9914 112.913 18.5134 112.913 19.1014V25.2034C112.913 25.2634 112.889 25.3174 112.841 25.3654C112.805 25.4014 112.757 25.4194 112.697 25.4194H111.041C110.981 25.4194 110.927 25.4014 110.879 25.3654C110.843 25.3174 110.825 25.2634 110.825 25.2034V24.7534C110.825 24.7174 110.813 24.6934 110.789 24.6814C110.765 24.6694 110.741 24.6754 110.717 24.6994C110.213 25.2754 109.487 25.5634 108.539 25.5634C107.747 25.5634 107.075 25.3534 106.523 24.9334C105.971 24.5014 105.695 23.8054 105.695 22.8454C105.695 21.8374 106.013 21.0874 106.649 20.5954C107.297 20.1034 108.185 19.8574 109.313 19.8574H110.735C110.795 19.8574 110.825 19.8274 110.825 19.7674V19.3174C110.825 18.8734 110.699 18.5254 110.447 18.2734C110.207 18.0094 109.871 17.8774 109.439 17.8774C109.091 17.8774 108.803 17.9614 108.575 18.1294C108.359 18.2854 108.221 18.5014 108.161 18.7774C108.125 18.9094 108.041 18.9754 107.909 18.9754L106.163 18.8674C106.103 18.8674 106.049 18.8494 106.001 18.8134C105.965 18.7654 105.953 18.7174 105.965 18.6694C106.037 17.9014 106.391 17.2774 107.027 16.7974C107.675 16.3174 108.473 16.0774 109.421 16.0774ZM109.079 23.8714C109.547 23.8714 109.955 23.7394 110.303 23.4754C110.651 23.1994 110.825 22.8394 110.825 22.3954V21.4594C110.825 21.3994 110.795 21.3694 110.735 21.3694H109.529C109.001 21.3694 108.581 21.4834 108.269 21.7114C107.969 21.9394 107.819 22.2694 107.819 22.7014C107.819 23.0854 107.933 23.3794 108.161 23.5834C108.401 23.7754 108.707 23.8714 109.079 23.8714ZM113.665 29.0014C113.629 29.0014 113.599 28.9774 113.575 28.9294C113.551 28.8934 113.539 28.8454 113.539 28.7854V27.4894C113.539 27.3454 113.605 27.2734 113.737 27.2734C114.181 27.2614 114.529 27.2074 114.781 27.1114C115.033 27.0274 115.237 26.8534 115.393 26.5894C115.549 26.3374 115.675 25.9654 115.771 25.4734C115.783 25.4494 115.783 25.4134 115.771 25.3654L113.161 16.4554L113.143 16.3834C113.143 16.2634 113.209 16.2034 113.341 16.2034H115.123C115.243 16.2034 115.321 16.2634 115.357 16.3834L116.797 22.5394C116.809 22.5874 116.827 22.6114 116.851 22.6114C116.875 22.6114 116.893 22.5874 116.905 22.5394L118.345 16.4014C118.381 16.2694 118.459 16.2034 118.579 16.2034L120.325 16.2214C120.397 16.2214 120.445 16.2454 120.469 16.2934C120.505 16.3294 120.517 16.3834 120.505 16.4554L117.715 25.9234C117.451 26.7754 117.181 27.4114 116.905 27.8314C116.641 28.2514 116.269 28.5514 115.789 28.7314C115.321 28.9114 114.649 29.0014 113.773 29.0014H113.665ZM127.755 19.2814C127.791 19.6774 127.809 20.1334 127.809 20.6494L127.791 21.4234C127.791 21.5674 127.719 21.6394 127.575 21.6394H122.751C122.691 21.6394 122.661 21.6694 122.661 21.7294C122.685 22.0654 122.709 22.3114 122.733 22.4674C122.793 22.8634 122.961 23.1814 123.237 23.4214C123.513 23.6614 123.861 23.7814 124.281 23.7814C124.641 23.7694 124.941 23.6794 125.181 23.5114C125.433 23.3434 125.625 23.1094 125.757 22.8094C125.817 22.6774 125.907 22.6294 126.027 22.6654L127.503 22.9714C127.647 23.0194 127.695 23.1094 127.647 23.2414C127.407 23.9854 126.993 24.5614 126.405 24.9694C125.829 25.3654 125.121 25.5634 124.281 25.5634C123.285 25.5634 122.487 25.3234 121.887 24.8434C121.287 24.3634 120.897 23.6974 120.717 22.8454C120.657 22.5214 120.615 22.1794 120.591 21.8194C120.579 21.4594 120.573 20.9794 120.573 20.3794C120.573 19.7554 120.603 19.2814 120.663 18.9574C120.783 18.0814 121.155 17.3854 121.779 16.8694C122.403 16.3414 123.195 16.0774 124.155 16.0774C125.199 16.0774 126.039 16.3714 126.675 16.9594C127.323 17.5474 127.683 18.3214 127.755 19.2814ZM124.173 17.8774C123.777 17.8774 123.447 17.9974 123.183 18.2374C122.931 18.4654 122.775 18.7774 122.715 19.1734C122.679 19.4374 122.661 19.7374 122.661 20.0734C122.661 20.1334 122.691 20.1634 122.751 20.1634H125.613C125.673 20.1634 125.703 20.1334 125.703 20.0734C125.679 19.6654 125.655 19.3714 125.631 19.1914C125.583 18.7954 125.427 18.4774 125.163 18.2374C124.899 17.9974 124.569 17.8774 124.173 17.8774ZM132.729 16.1134C133.065 16.1134 133.359 16.1854 133.611 16.3294C133.707 16.3774 133.743 16.4674 133.719 16.5994L133.413 18.2374C133.401 18.3814 133.317 18.4234 133.161 18.3634C133.005 18.3034 132.825 18.2734 132.621 18.2734C132.537 18.2734 132.411 18.2854 132.243 18.3094C131.835 18.3454 131.493 18.5314 131.217 18.8674C130.953 19.2034 130.821 19.6234 130.821 20.1274V25.2034C130.821 25.2634 130.797 25.3174 130.749 25.3654C130.713 25.4014 130.665 25.4194 130.605 25.4194H128.949C128.889 25.4194 128.835 25.4014 128.787 25.3654C128.751 25.3174 128.733 25.2634 128.733 25.2034V16.4374C128.733 16.3774 128.751 16.3294 128.787 16.2934C128.835 16.2454 128.889 16.2214 128.949 16.2214H130.605C130.665 16.2214 130.713 16.2454 130.749 16.2934C130.797 16.3294 130.821 16.3774 130.821 16.4374V17.2114C130.821 17.2594 130.827 17.2894 130.839 17.3014C130.863 17.3014 130.887 17.2834 130.911 17.2474C131.343 16.4914 131.949 16.1134 132.729 16.1134ZM138.201 14.9614C137.829 14.9614 137.523 14.8414 137.283 14.6014C137.055 14.3614 136.941 14.0554 136.941 13.6834C136.941 13.3114 137.055 13.0054 137.283 12.7654C137.523 12.5254 137.829 12.4054 138.201 12.4054C138.585 12.4054 138.891 12.5254 139.119 12.7654C139.359 12.9934 139.479 13.2994 139.479 13.6834C139.479 14.0554 139.359 14.3614 139.119 14.6014C138.879 14.8414 138.573 14.9614 138.201 14.9614ZM137.373 25.4194C137.313 25.4194 137.259 25.4014 137.211 25.3654C137.175 25.3174 137.157 25.2634 137.157 25.2034V16.4194C137.157 16.3594 137.175 16.3114 137.211 16.2754C137.259 16.2274 137.313 16.2034 137.373 16.2034H139.029C139.089 16.2034 139.137 16.2274 139.173 16.2754C139.221 16.3114 139.245 16.3594 139.245 16.4194V25.2034C139.245 25.2634 139.221 25.3174 139.173 25.3654C139.137 25.4014 139.089 25.4194 139.029 25.4194H137.373ZM143.698 25.5274C142.654 25.5274 141.82 25.2934 141.196 24.8254C140.572 24.3574 140.26 23.7454 140.26 22.9894V22.8454C140.26 22.7854 140.278 22.7374 140.314 22.7014C140.362 22.6534 140.416 22.6294 140.476 22.6294H142.042C142.102 22.6294 142.15 22.6534 142.186 22.7014C142.234 22.7374 142.258 22.7854 142.258 22.8454V22.8994C142.258 23.1874 142.396 23.4394 142.672 23.6554C142.948 23.8594 143.29 23.9614 143.698 23.9614C144.094 23.9614 144.412 23.8654 144.652 23.6734C144.904 23.4814 145.03 23.2414 145.03 22.9534C145.03 22.6654 144.904 22.4434 144.652 22.2874C144.412 22.1314 144.034 21.9634 143.518 21.7834L143.05 21.6214C142.234 21.3574 141.58 21.0274 141.088 20.6314C140.596 20.2234 140.35 19.6234 140.35 18.8314C140.35 17.9914 140.65 17.3314 141.25 16.8514C141.85 16.3594 142.642 16.1134 143.626 16.1134C144.646 16.1134 145.456 16.3654 146.056 16.8694C146.668 17.3614 146.974 18.0214 146.974 18.8494V18.8674C146.974 18.9274 146.95 18.9814 146.902 19.0294C146.866 19.0654 146.818 19.0834 146.758 19.0834H145.246C145.186 19.0834 145.132 19.0654 145.084 19.0294C145.048 18.9814 145.03 18.9274 145.03 18.8674V18.7954C145.03 18.4954 144.904 18.2494 144.652 18.0574C144.4 17.8534 144.07 17.7514 143.662 17.7514C143.266 17.7514 142.948 17.8474 142.708 18.0394C142.468 18.2194 142.348 18.4534 142.348 18.7414C142.348 18.9694 142.432 19.1614 142.6 19.3174C142.768 19.4614 142.954 19.5754 143.158 19.6594C143.374 19.7434 143.746 19.8754 144.274 20.0554C144.838 20.2474 145.312 20.4454 145.696 20.6494C146.092 20.8534 146.428 21.1354 146.704 21.4954C146.98 21.8554 147.118 22.3114 147.118 22.8634C147.118 23.6914 146.806 24.3454 146.182 24.8254C145.57 25.2934 144.742 25.5274 143.698 25.5274ZM151.914 14.9614C151.542 14.9614 151.236 14.8414 150.996 14.6014C150.768 14.3614 150.654 14.0554 150.654 13.6834C150.654 13.3114 150.768 13.0054 150.996 12.7654C151.236 12.5254 151.542 12.4054 151.914 12.4054C152.298 12.4054 152.604 12.5254 152.832 12.7654C153.072 12.9934 153.192 13.2994 153.192 13.6834C153.192 14.0554 153.072 14.3614 152.832 14.6014C152.592 14.8414 152.286 14.9614 151.914 14.9614ZM151.086 25.4194C151.026 25.4194 150.972 25.4014 150.924 25.3654C150.888 25.3174 150.87 25.2634 150.87 25.2034V16.4194C150.87 16.3594 150.888 16.3114 150.924 16.2754C150.972 16.2274 151.026 16.2034 151.086 16.2034H152.742C152.802 16.2034 152.85 16.2274 152.886 16.2754C152.934 16.3114 152.958 16.3594 152.958 16.4194V25.2034C152.958 25.2634 152.934 25.3174 152.886 25.3654C152.85 25.4014 152.802 25.4194 152.742 25.4194H151.086ZM158.473 16.0774C159.349 16.0774 160.033 16.3534 160.525 16.9054C161.017 17.4574 161.263 18.2194 161.263 19.1914V25.2034C161.263 25.2634 161.239 25.3174 161.191 25.3654C161.155 25.4014 161.107 25.4194 161.047 25.4194H159.391C159.331 25.4194 159.277 25.4014 159.229 25.3654C159.193 25.3174 159.175 25.2634 159.175 25.2034V19.4794C159.175 18.9874 159.049 18.5974 158.797 18.3094C158.557 18.0214 158.227 17.8774 157.807 17.8774C157.375 17.8774 157.027 18.0274 156.763 18.3274C156.511 18.6154 156.385 19.0054 156.385 19.4974V25.2034C156.385 25.2634 156.361 25.3174 156.313 25.3654C156.277 25.4014 156.229 25.4194 156.169 25.4194H154.513C154.453 25.4194 154.399 25.4014 154.351 25.3654C154.315 25.3174 154.297 25.2634 154.297 25.2034V16.4374C154.297 16.3774 154.315 16.3294 154.351 16.2934C154.399 16.2454 154.453 16.2214 154.513 16.2214H156.169C156.229 16.2214 156.277 16.2454 156.313 16.2934C156.361 16.3294 156.385 16.3774 156.385 16.4374V16.9054C156.385 16.9414 156.397 16.9654 156.421 16.9774C156.445 16.9894 156.469 16.9774 156.493 16.9414C156.973 16.3654 157.633 16.0774 158.473 16.0774ZM165.731 16.0774C166.415 16.0774 167.021 16.2094 167.549 16.4734C168.077 16.7254 168.485 17.0794 168.773 17.5354C169.073 17.9914 169.223 18.5134 169.223 19.1014V25.2034C169.223 25.2634 169.199 25.3174 169.151 25.3654C169.115 25.4014 169.067 25.4194 169.007 25.4194H167.351C167.291 25.4194 167.237 25.4014 167.189 25.3654C167.153 25.3174 167.135 25.2634 167.135 25.2034V24.7534C167.135 24.7174 167.123 24.6934 167.099 24.6814C167.075 24.6694 167.051 24.6754 167.027 24.6994C166.523 25.2754 165.797 25.5634 164.849 25.5634C164.057 25.5634 163.385 25.3534 162.833 24.9334C162.281 24.5014 162.005 23.8054 162.005 22.8454C162.005 21.8374 162.323 21.0874 162.959 20.5954C163.607 20.1034 164.495 19.8574 165.623 19.8574H167.045C167.105 19.8574 167.135 19.8274 167.135 19.7674V19.3174C167.135 18.8734 167.009 18.5254 166.757 18.2734C166.517 18.0094 166.181 17.8774 165.749 17.8774C165.401 17.8774 165.113 17.9614 164.885 18.1294C164.669 18.2854 164.531 18.5014 164.471 18.7774C164.435 18.9094 164.351 18.9754 164.219 18.9754L162.473 18.8674C162.413 18.8674 162.359 18.8494 162.311 18.8134C162.275 18.7654 162.263 18.7174 162.275 18.6694C162.347 17.9014 162.701 17.2774 163.337 16.7974C163.985 16.3174 164.783 16.0774 165.731 16.0774ZM165.389 23.8714C165.857 23.8714 166.265 23.7394 166.613 23.4754C166.961 23.1994 167.135 22.8394 167.135 22.3954V21.4594C167.135 21.3994 167.105 21.3694 167.045 21.3694H165.839C165.311 21.3694 164.891 21.4834 164.579 21.7114C164.279 21.9394 164.129 22.2694 164.129 22.7014C164.129 23.0854 164.243 23.3794 164.471 23.5834C164.711 23.7754 165.017 23.8714 165.389 23.8714ZM173.75 25.5634C172.778 25.5634 171.98 25.3174 171.356 24.8254C170.744 24.3214 170.372 23.6374 170.24 22.7734C170.144 22.2814 170.096 21.6214 170.096 20.7934C170.096 20.0374 170.144 19.3834 170.24 18.8314C170.372 17.9914 170.75 17.3254 171.374 16.8334C171.998 16.3294 172.79 16.0774 173.75 16.0774C174.674 16.0774 175.454 16.3174 176.09 16.7974C176.726 17.2654 177.11 17.8834 177.242 18.6514C177.254 18.6994 177.266 18.7594 177.278 18.8314C177.29 18.9034 177.296 18.9934 177.296 19.1014V19.1374C177.296 19.2454 177.23 19.3114 177.098 19.3354L175.46 19.4974H175.424C175.316 19.4974 175.25 19.4314 175.226 19.2994C175.226 19.2154 175.214 19.1254 175.19 19.0294C175.13 18.7054 174.968 18.4354 174.704 18.2194C174.452 17.9914 174.128 17.8774 173.732 17.8774C173.336 17.8774 173.006 17.9974 172.742 18.2374C172.49 18.4774 172.334 18.7954 172.274 19.1914C172.214 19.6474 172.184 20.1874 172.184 20.8114C172.184 21.4954 172.22 22.0474 172.292 22.4674C172.352 22.8634 172.508 23.1814 172.76 23.4214C173.012 23.6494 173.336 23.7634 173.732 23.7634C174.14 23.7634 174.47 23.6494 174.722 23.4214C174.986 23.1814 175.142 22.8934 175.19 22.5574L175.208 22.3774C175.22 22.3174 175.25 22.2694 175.298 22.2334C175.346 22.1854 175.4 22.1674 175.46 22.1794L177.08 22.3234C177.224 22.3474 177.296 22.4254 177.296 22.5574L177.26 22.8634C177.152 23.6794 176.78 24.3334 176.144 24.8254C175.508 25.3174 174.71 25.5634 173.75 25.5634ZM182.456 17.5894C182.456 17.6494 182.432 17.7034 182.384 17.7514C182.348 17.7874 182.3 17.8054 182.24 17.8054H180.782C180.722 17.8054 180.692 17.8354 180.692 17.8954V22.4134C180.692 22.8574 180.776 23.1754 180.944 23.3674C181.124 23.5474 181.4 23.6314 181.772 23.6194H182.096C182.156 23.6194 182.204 23.6434 182.24 23.6914C182.288 23.7274 182.312 23.7754 182.312 23.8354V25.2034C182.312 25.3354 182.24 25.4134 182.096 25.4374H181.34C180.452 25.4374 179.786 25.2814 179.342 24.9694C178.898 24.6574 178.676 24.0694 178.676 23.2054V17.8954C178.676 17.8354 178.646 17.8054 178.586 17.8054H177.758C177.698 17.8054 177.644 17.7874 177.596 17.7514C177.56 17.7034 177.542 17.6494 177.542 17.5894V16.4374C177.542 16.3774 177.56 16.3294 177.596 16.2934C177.644 16.2454 177.698 16.2214 177.758 16.2214H178.586C178.646 16.2214 178.676 16.1914 178.676 16.1314V14.0794C178.676 14.0194 178.694 13.9714 178.73 13.9354C178.778 13.8874 178.832 13.8634 178.892 13.8634H180.476C180.536 13.8634 180.584 13.8874 180.62 13.9354C180.668 13.9714 180.692 14.0194 180.692 14.0794V16.1314C180.692 16.1914 180.722 16.2214 180.782 16.2214H182.24C182.3 16.2214 182.348 16.2454 182.384 16.2934C182.432 16.3294 182.456 16.3774 182.456 16.4374V17.5894ZM184.42 14.9614C184.048 14.9614 183.742 14.8414 183.502 14.6014C183.274 14.3614 183.16 14.0554 183.16 13.6834C183.16 13.3114 183.274 13.0054 183.502 12.7654C183.742 12.5254 184.048 12.4054 184.42 12.4054C184.804 12.4054 185.11 12.5254 185.338 12.7654C185.578 12.9934 185.698 13.2994 185.698 13.6834C185.698 14.0554 185.578 14.3614 185.338 14.6014C185.098 14.8414 184.792 14.9614 184.42 14.9614ZM183.592 25.4194C183.532 25.4194 183.478 25.4014 183.43 25.3654C183.394 25.3174 183.376 25.2634 183.376 25.2034V16.4194C183.376 16.3594 183.394 16.3114 183.43 16.2754C183.478 16.2274 183.532 16.2034 183.592 16.2034H185.248C185.308 16.2034 185.356 16.2274 185.392 16.2754C185.44 16.3114 185.464 16.3594 185.464 16.4194V25.2034C185.464 25.2634 185.44 25.3174 185.392 25.3654C185.356 25.4014 185.308 25.4194 185.248 25.4194H183.592ZM189.034 25.4194C188.902 25.4194 188.818 25.3594 188.782 25.2394L186.262 16.4374L186.244 16.3654C186.244 16.2574 186.31 16.2034 186.442 16.2034H188.26C188.38 16.2034 188.458 16.2634 188.494 16.3834L189.916 22.3414C189.928 22.3894 189.946 22.4134 189.97 22.4134C189.994 22.4134 190.012 22.3894 190.024 22.3414L191.428 16.4014C191.464 16.2694 191.542 16.2034 191.662 16.2034L193.498 16.2394C193.654 16.2394 193.714 16.3174 193.678 16.4734L191.158 25.2394C191.122 25.3594 191.038 25.4194 190.906 25.4194H189.034ZM201.012 19.2814C201.048 19.6774 201.066 20.1334 201.066 20.6494L201.048 21.4234C201.048 21.5674 200.976 21.6394 200.832 21.6394H196.008C195.948 21.6394 195.918 21.6694 195.918 21.7294C195.942 22.0654 195.966 22.3114 195.99 22.4674C196.05 22.8634 196.218 23.1814 196.494 23.4214C196.77 23.6614 197.118 23.7814 197.538 23.7814C197.898 23.7694 198.198 23.6794 198.438 23.5114C198.69 23.3434 198.882 23.1094 199.014 22.8094C199.074 22.6774 199.164 22.6294 199.284 22.6654L200.76 22.9714C200.904 23.0194 200.952 23.1094 200.904 23.2414C200.664 23.9854 200.25 24.5614 199.662 24.9694C199.086 25.3654 198.378 25.5634 197.538 25.5634C196.542 25.5634 195.744 25.3234 195.144 24.8434C194.544 24.3634 194.154 23.6974 193.974 22.8454C193.914 22.5214 193.872 22.1794 193.848 21.8194C193.836 21.4594 193.83 20.9794 193.83 20.3794C193.83 19.7554 193.86 19.2814 193.92 18.9574C194.04 18.0814 194.412 17.3854 195.036 16.8694C195.66 16.3414 196.452 16.0774 197.412 16.0774C198.456 16.0774 199.296 16.3714 199.932 16.9594C200.58 17.5474 200.94 18.3214 201.012 19.2814ZM197.43 17.8774C197.034 17.8774 196.704 17.9974 196.44 18.2374C196.188 18.4654 196.032 18.7774 195.972 19.1734C195.936 19.4374 195.918 19.7374 195.918 20.0734C195.918 20.1334 195.948 20.1634 196.008 20.1634H198.87C198.93 20.1634 198.96 20.1334 198.96 20.0734C198.936 19.6654 198.912 19.3714 198.888 19.1914C198.84 18.7954 198.684 18.4774 198.42 18.2374C198.156 17.9974 197.826 17.8774 197.43 17.8774Z" fill="white"/>
<path d="M56.5074 23.6158C56.178 23.6158 55.8486 23.4945 55.5885 23.2344L48.7226 16.3685C48.2198 15.8657 48.2198 15.0335 48.7226 14.5307C49.2254 14.0279 50.0577 14.0279 50.5605 14.5307L57.4264 21.3966C57.9292 21.8994 57.9292 22.7316 57.4264 23.2344C57.1663 23.4771 56.8369 23.6158 56.5074 23.6158Z" fill="white"/>
<path d="M49.5704 23.6854C49.241 23.6854 48.9116 23.5641 48.6515 23.304C48.1487 22.8012 48.1487 21.9689 48.6515 21.4661L55.5174 14.6002C56.0202 14.0974 56.8524 14.0974 57.3553 14.6002C57.8581 15.1031 57.8581 15.9353 57.3553 16.4381L50.4894 23.304C50.2293 23.5641 49.8999 23.6854 49.5704 23.6854Z" fill="white"/>
<defs>
<filter id="filter0_b_0_6572" x="-3.90161" y="-3.17627" width="258.284" height="44.1914" filterUnits="userSpaceOnUse" color-interpolation-filters="sRGB">
<feFlood flood-opacity="0" result="BackgroundImageFix"/>
<feGaussianBlur in="BackgroundImageFix" stdDeviation="2"/>
<feComposite in2="SourceAlpha" operator="in" result="effect1_backgroundBlur_0_6572"/>
<feBlend mode="normal" in="SourceGraphic" in2="effect1_backgroundBlur_0_6572" result="shape"/>
</filter>
<linearGradient id="paint0_linear_0_6572" x1="250.382" y1="18.9194" x2="-29.1284" y2="18.9194" gradientUnits="userSpaceOnUse">
<stop stop-color="#FF2442"/>
<stop offset="1" stop-color="#FBB243"/>
</linearGradient>
</defs>
</svg>
