<svg width="21" height="21" viewBox="0 0 21 21" fill="none" xmlns="http://www.w3.org/2000/svg">
<path d="M7.32461 19.9405H3.95794C2.28294 19.9405 1.47461 19.1655 1.47461 17.5655V4.3988C1.47461 2.7988 2.29128 2.0238 3.95794 2.0238H7.32461C8.99961 2.0238 9.80794 2.7988 9.80794 4.3988V17.5655C9.80794 19.1655 8.99128 19.9405 7.32461 19.9405ZM3.95794 3.2738C2.89961 3.2738 2.72461 3.55714 2.72461 4.3988V17.5655C2.72461 18.4071 2.89961 18.6905 3.95794 18.6905H7.32461C8.38294 18.6905 8.55794 18.4071 8.55794 17.5655V4.3988C8.55794 3.55714 8.38294 3.2738 7.32461 3.2738H3.95794V3.2738Z" fill="#1C1D4D"/>
<path d="M16.9086 14.1071H13.5419C11.8669 14.1071 11.0586 13.3321 11.0586 11.7321V4.3988C11.0586 2.7988 11.8753 2.0238 13.5419 2.0238H16.9086C18.5836 2.0238 19.3919 2.7988 19.3919 4.3988V11.7321C19.3919 13.3321 18.5753 14.1071 16.9086 14.1071ZM13.5419 3.2738C12.4836 3.2738 12.3086 3.55714 12.3086 4.3988V11.7321C12.3086 12.5738 12.4836 12.8571 13.5419 12.8571H16.9086C17.9669 12.8571 18.1419 12.5738 18.1419 11.7321V4.3988C18.1419 3.55714 17.9669 3.2738 16.9086 3.2738H13.5419V3.2738Z" fill="#1C1D4D"/>
</svg>
