<svg width="160" height="130" viewBox="0 0 160 130" fill="none" xmlns="http://www.w3.org/2000/svg">
<path opacity="0.1" d="M10.3691 1.13574C5.12244 1.13574 0.869141 5.38903 0.869141 10.6357V119.53C0.869141 124.776 5.12244 129.03 10.3691 129.03H150.01C155.256 129.03 159.51 124.776 159.51 119.53V10.6357C159.51 5.38904 155.256 1.13574 150.01 1.13574H10.3691Z" stroke="#1C1D4D"/>
<path d="M6.58594 20.6567C6.58594 17.8953 8.82451 15.6567 11.5859 15.6567H31.6278V123.35H12.5859C9.27222 123.35 6.58594 120.663 6.58594 117.35V20.6567Z" fill="#F1F1F4"/>
<path opacity="0.06" d="M32.207 15.6567H149.83C152.039 15.6567 153.83 17.4476 153.83 19.6567V119.35C153.83 121.559 152.039 123.35 149.83 123.35H32.207V15.6567Z" fill="#1C1D4D"/>
<rect x="49.8535" y="26.4011" width="90.3965" height="12.7225" fill="white"/>
<rect x="49.8535" y="47.0229" width="60.7694" height="59.8016" fill="white"/>
<circle cx="14.232" cy="8.57623" r="2.14215" fill="#C00E1E"/>
<circle cx="20.2574" cy="8.57623" r="2.14215" fill="#FFD000"/>
<circle cx="26.2828" cy="8.57623" r="2.14215" fill="#2BB650"/>
</svg>
