<svg width="25" height="25" viewBox="0 0 25 25" fill="none" xmlns="http://www.w3.org/2000/svg">
<path d="M9.77962 10.8519L9.98654 10.645C11.9652 8.66619 15.1734 8.66619 17.1521 10.645C19.1309 12.6237 19.1309 15.8319 17.1521 17.8106L14.2859 20.6768C12.3072 22.6556 9.09902 22.6556 7.12028 20.6768C5.14155 18.6981 5.14155 15.4899 7.12028 13.5112L7.58463 13.0469" stroke="#141B34" stroke-width="1.5" stroke-linecap="round"/>
<path d="M17.6878 11.2749L18.1521 10.8106C20.1309 8.83184 20.1309 5.62368 18.1521 3.64494C16.1734 1.66621 12.9652 1.66621 10.9865 3.64494L8.12028 6.5112C6.14155 8.48993 6.14155 11.6981 8.12028 13.6768C10.099 15.6556 13.3072 15.6556 15.2859 13.6768L15.4928 13.4699" stroke="#141B34" stroke-width="1.5" stroke-linecap="round"/>
</svg>
