<svg width="28" height="33" viewBox="0 0 28 33" fill="none" xmlns="http://www.w3.org/2000/svg">
<circle cx="13.885" cy="21.4941" r="8.44132" fill="white"/>
<path d="M10.9741 7.64746L5.96559 0.484619H5.92077V0.529441L1.07134 5.37882C0.498966 5.95119 0.278296 6.83386 0.542084 7.58377L4.35942 11.3523C6.12477 9.54386 8.41755 8.22151 10.9741 7.64746Z" fill="url(#paint0_linear_0_335)"/>
<path d="M26.9636 5.5219L22.0692 0.627502L17.1455 7.64795C19.7022 8.26511 21.9503 9.54432 23.7584 11.351L27.491 7.72486C27.7565 6.97667 27.536 6.09427 26.9636 5.5219Z" fill="url(#paint1_linear_0_335)"/>
<path d="M14.0599 8.79565C7.40543 8.79565 1.9801 14.1711 1.9801 20.8754C1.9801 27.5299 7.36041 32.9534 14.0599 32.9534C20.7593 32.9534 26.1396 27.5731 26.1396 20.8737C26.1396 14.1707 20.7143 8.79565 14.0599 8.79565Z" fill="url(#paint2_linear_0_335)"/>
<path d="M13.8954 12.8524C14.9216 12.8525 15.8263 13.0467 16.6034 13.4423H16.6024C17.3918 13.837 18.0092 14.3964 18.4491 15.12C18.89 15.8453 19.1072 16.6873 19.1073 17.6385C19.1073 17.7742 19.0675 17.9012 18.9823 18.0077L18.9755 18.0165L18.9677 18.0243C18.8696 18.1222 18.7426 18.1614 18.6112 18.163L15.4061 18.3055H15.3964C15.2675 18.3055 15.1338 18.2754 15.0321 18.1805C14.928 18.0833 14.8925 17.9511 14.8925 17.8221V17.5985C14.8925 17.2442 14.7955 16.9861 14.6219 16.8016C14.4494 16.6184 14.2147 16.5205 13.8954 16.5204C13.5796 16.5204 13.3359 16.6225 13.1473 16.8221C12.9726 17.0079 12.8778 17.2599 12.8778 17.5985V23.037C12.8778 23.3714 12.9706 23.6308 13.1454 23.8309C13.3329 24.0175 13.577 24.1161 13.8954 24.1161C14.2147 24.116 14.4494 24.0171 14.6219 23.8339C14.7955 23.6494 14.8925 23.3913 14.8925 23.037V22.7938C14.8925 22.6646 14.9277 22.5319 15.0321 22.4344C15.1338 22.3396 15.2675 22.3095 15.3964 22.3094H15.4061L18.6122 22.452H18.6112C18.7428 22.4536 18.8695 22.4935 18.9677 22.5917C19.0677 22.6918 19.1073 22.8216 19.1073 22.9559C19.1073 23.9074 18.8901 24.7558 18.4501 25.494C18.0104 26.2313 17.3928 26.798 16.6024 27.1932C15.8128 27.588 14.9088 27.783 13.8954 27.7831C12.8678 27.7831 11.9555 27.5812 11.1649 27.1718C10.3747 26.7625 9.75726 26.1821 9.31824 25.4315V25.4296C8.87919 24.6647 8.66201 23.7842 8.66199 22.7938V17.7811C8.66199 16.8039 8.87873 15.9361 9.31824 15.1844C9.70273 14.5271 10.2242 14.0044 10.8788 13.619L11.1678 13.4618C11.9578 13.0534 12.8691 12.8524 13.8954 12.8524Z" fill="white" stroke="black" stroke-width="0.4"/>
<defs>
<linearGradient id="paint0_linear_0_335" x1="5.36284" y1="-8.97285" x2="5.36284" y2="11.3527" gradientUnits="userSpaceOnUse">
<stop stop-color="#FFB82D"/>
<stop offset="1" stop-color="#FF891B"/>
</linearGradient>
<linearGradient id="paint1_linear_0_335" x1="22.756" y1="-8.97324" x2="22.756" y2="11.3505" gradientUnits="userSpaceOnUse">
<stop stop-color="#FFB82D"/>
<stop offset="1" stop-color="#FF891B"/>
</linearGradient>
<linearGradient id="paint2_linear_0_335" x1="14.0599" y1="8.79565" x2="14.0599" y2="32.9534" gradientUnits="userSpaceOnUse">
<stop stop-color="#FFB82D"/>
<stop offset="1" stop-color="#FF891B"/>
</linearGradient>
</defs>
</svg>
