<svg width="20" height="29" viewBox="0 0 20 29" fill="none" xmlns="http://www.w3.org/2000/svg">
<circle cx="9.71886" cy="20.1295" r="5.82335" fill="white"/>
<path d="M7.71042 10.5774L4.25524 0.635976H4.22432V0.666897L0.878881 4.0123C0.484023 4.40716 0.331791 5.01608 0.513769 5.53342L3.14721 13.1332C4.36506 11.8856 5.94676 10.9734 7.71042 10.5774Z" fill="url(#paint0_linear_2284_2941)"/>
<path d="M18.7409 3.73125L15.3645 0.354789L11.9678 10.5777C13.7315 11.0034 15.2824 11.8859 16.5298 13.1323L19.1048 5.251C19.2879 4.73484 19.1358 4.12611 18.7409 3.73125Z" fill="url(#paint1_linear_2284_2941)"/>
<path d="M9.83924 11.3694C5.24859 11.3694 1.50586 15.0777 1.50586 19.7028C1.50586 24.2934 5.21753 28.0349 9.83924 28.0349C14.4609 28.0349 18.1726 24.3232 18.1726 19.7015C18.1726 15.0774 14.4299 11.3694 9.83924 11.3694Z" fill="url(#paint2_linear_2284_2941)"/>
<path d="M9.66145 24.8143C8.97079 24.8143 8.36412 24.679 7.84145 24.4083C7.31879 24.1376 6.91279 23.755 6.62345 23.2603C6.33412 22.7563 6.18945 22.1729 6.18945 21.5103V18.0523C6.18945 17.3989 6.33412 16.8249 6.62345 16.3303C6.91279 15.8356 7.31879 15.4576 7.84145 15.1963C8.36412 14.9256 8.97079 14.7903 9.66145 14.7903C10.3521 14.7903 10.9541 14.9209 11.4675 15.1823C11.9901 15.4436 12.3961 15.8123 12.6855 16.2883C12.9748 16.7643 13.1195 17.3196 13.1195 17.9543C13.1195 18.0196 13.1008 18.0756 13.0635 18.1223C13.0261 18.1596 12.9748 18.1783 12.9095 18.1783L10.6975 18.2763C10.5575 18.2763 10.4875 18.2109 10.4875 18.0803V17.9263C10.4875 17.6556 10.4128 17.4409 10.2635 17.2823C10.1141 17.1236 9.91345 17.0443 9.66145 17.0443C9.40945 17.0443 9.20412 17.1283 9.04545 17.2963C8.89612 17.4549 8.82145 17.6649 8.82145 17.9263V21.6783C8.82145 21.9396 8.89612 22.1543 9.04545 22.3223C9.20412 22.4809 9.40945 22.5603 9.66145 22.5603C9.91345 22.5603 10.1141 22.4809 10.2635 22.3223C10.4128 22.1636 10.4875 21.9489 10.4875 21.6783V21.5103C10.4875 21.3796 10.5575 21.3143 10.6975 21.3143L12.9095 21.4123C12.9748 21.4123 13.0261 21.4309 13.0635 21.4683C13.1008 21.5056 13.1195 21.5569 13.1195 21.6223C13.1195 22.2569 12.9748 22.8169 12.6855 23.3023C12.3961 23.7876 11.9901 24.1609 11.4675 24.4223C10.9448 24.6836 10.3428 24.8143 9.66145 24.8143Z" fill="white"/>
<defs>
<linearGradient id="paint0_linear_2284_2941" x1="4.07396" y1="0.635986" x2="4.07396" y2="13.1332" gradientUnits="userSpaceOnUse">
<stop stop-color="#ADA395"/>
<stop offset="0.475" stop-color="#E1E1E1"/>
<stop offset="1" stop-color="#BEB7B1"/>
</linearGradient>
<linearGradient id="paint1_linear_2284_2941" x1="15.5748" y1="0.354736" x2="15.5748" y2="13.1323" gradientUnits="userSpaceOnUse">
<stop stop-color="#ADA395"/>
<stop offset="0.475" stop-color="#E1E1E1"/>
<stop offset="1" stop-color="#BEB7B1"/>
</linearGradient>
<linearGradient id="paint2_linear_2284_2941" x1="9.83924" y1="11.3694" x2="9.83924" y2="28.0349" gradientUnits="userSpaceOnUse">
<stop stop-color="#ADA395"/>
<stop offset="0.475" stop-color="#E1E1E1"/>
<stop offset="1" stop-color="#BEB7B1"/>
</linearGradient>
</defs>
</svg>
