<svg width="20" height="29" viewBox="0 0 20 29" fill="none" xmlns="http://www.w3.org/2000/svg">
<circle cx="9.56065" cy="20.1466" r="5.82335" fill="white"/>
<path d="M7.55222 10.5944L4.09704 0.653066H4.06612V0.683987L0.720678 4.02939C0.32582 4.42425 0.173588 5.03317 0.355565 5.55051L2.989 13.1503C4.20685 11.9027 5.78856 10.9905 7.55222 10.5944Z" fill="url(#paint0_linear_2284_2940)"/>
<path d="M18.5827 3.74834L15.2063 0.371879L11.8096 10.5947C13.5733 11.0205 15.1242 11.903 16.3716 13.1493L18.9466 5.26809C19.1297 4.75193 18.9776 4.1432 18.5827 3.74834Z" fill="url(#paint1_linear_2284_2940)"/>
<path d="M9.68103 11.3865C5.09038 11.3865 1.34766 15.0948 1.34766 19.7199C1.34766 24.3105 5.05933 28.052 9.68103 28.052C14.3027 28.052 18.0144 24.3403 18.0144 19.7186C18.0144 15.0945 14.2717 11.3865 9.68103 11.3865Z" fill="url(#paint2_linear_2284_2940)"/>
<path d="M9.50325 24.8314C8.81258 24.8314 8.20592 24.696 7.68325 24.4254C7.16058 24.1547 6.75458 23.772 6.46525 23.2774C6.17592 22.7734 6.03125 22.19 6.03125 21.5274V18.0694C6.03125 17.416 6.17592 16.842 6.46525 16.3474C6.75458 15.8527 7.16058 15.4747 7.68325 15.2134C8.20592 14.9427 8.81258 14.8074 9.50325 14.8074C10.1939 14.8074 10.7959 14.938 11.3093 15.1994C11.8319 15.4607 12.2379 15.8294 12.5273 16.3054C12.8166 16.7814 12.9613 17.3367 12.9613 17.9714C12.9613 18.0367 12.9426 18.0927 12.9053 18.1394C12.8679 18.1767 12.8166 18.1954 12.7512 18.1954L10.5392 18.2934C10.3993 18.2934 10.3293 18.228 10.3293 18.0974V17.9434C10.3293 17.6727 10.2546 17.458 10.1053 17.2994C9.95592 17.1407 9.75525 17.0614 9.50325 17.0614C9.25125 17.0614 9.04592 17.1454 8.88725 17.3134C8.73792 17.472 8.66325 17.682 8.66325 17.9434V21.6954C8.66325 21.9567 8.73792 22.1714 8.88725 22.3394C9.04592 22.498 9.25125 22.5774 9.50325 22.5774C9.75525 22.5774 9.95592 22.498 10.1053 22.3394C10.2546 22.1807 10.3293 21.966 10.3293 21.6954V21.5274C10.3293 21.3967 10.3993 21.3314 10.5392 21.3314L12.7512 21.4294C12.8166 21.4294 12.8679 21.448 12.9053 21.4854C12.9426 21.5227 12.9613 21.574 12.9613 21.6394C12.9613 22.274 12.8166 22.834 12.5273 23.3194C12.2379 23.8047 11.8319 24.178 11.3093 24.4394C10.7866 24.7007 10.1846 24.8314 9.50325 24.8314Z" fill="white"/>
<defs>
<linearGradient id="paint0_linear_2284_2940" x1="3.91576" y1="0.653076" x2="3.91576" y2="13.1503" gradientUnits="userSpaceOnUse">
<stop stop-color="#FFDAC2"/>
<stop offset="1" stop-color="#A86E56"/>
</linearGradient>
<linearGradient id="paint1_linear_2284_2940" x1="15.4166" y1="0.371826" x2="15.4166" y2="13.1493" gradientUnits="userSpaceOnUse">
<stop stop-color="#FFDAC2"/>
<stop offset="1" stop-color="#A86E56"/>
</linearGradient>
<linearGradient id="paint2_linear_2284_2940" x1="9.68103" y1="11.3865" x2="9.68103" y2="28.052" gradientUnits="userSpaceOnUse">
<stop stop-color="#FFDAC2"/>
<stop offset="1" stop-color="#A86E56"/>
</linearGradient>
</defs>
</svg>
