<svg width="20" height="29" viewBox="0 0 20 29" fill="none" xmlns="http://www.w3.org/2000/svg">
<path d="M7.56199 10.6489L4.1068 0.707509H4.07588V0.73843L0.730444 4.08384C0.335585 4.47869 0.183353 5.08761 0.365331 5.60495L2.99877 13.2047C4.21662 11.9571 5.79832 11.0449 7.56199 10.6489Z" fill="url(#paint0_linear_2284_2942)"/>
<path d="M18.5925 3.80279L15.216 0.426323L11.8193 10.6492C13.5831 11.0749 15.134 11.9574 16.3814 13.2038L18.9563 5.32253C19.1395 4.80638 18.9873 4.19764 18.5925 3.80279Z" fill="url(#paint1_linear_2284_2942)"/>
<path d="M9.6908 11.4409C5.10015 11.4409 1.35742 15.1492 1.35742 19.7743C1.35742 24.3649 5.06909 28.1065 9.6908 28.1065C14.3125 28.1065 18.0242 24.3948 18.0242 19.7731C18.0242 15.1489 14.2814 11.4409 9.6908 11.4409Z" fill="url(#paint2_linear_2284_2942)"/>
<path d="M9.57747 24.4017C8.8868 24.4017 8.28014 24.2664 7.75747 23.9957C7.2348 23.725 6.8288 23.3424 6.53947 22.8477C6.25014 22.3437 6.10547 21.7604 6.10547 21.0977V17.6397C6.10547 16.9864 6.25014 16.4124 6.53947 15.9177C6.8288 15.423 7.2348 15.045 7.75747 14.7837C8.28014 14.513 8.8868 14.3777 9.57747 14.3777C10.2681 14.3777 10.8701 14.5084 11.3835 14.7697C11.9061 15.031 12.3121 15.3997 12.6015 15.8757C12.8908 16.3517 13.0355 16.907 13.0355 17.5417C13.0355 17.607 13.0168 17.663 12.9795 17.7097C12.9421 17.747 12.8908 17.7657 12.8255 17.7657L10.6135 17.8637C10.4735 17.8637 10.4035 17.7984 10.4035 17.6677V17.5137C10.4035 17.243 10.3288 17.0284 10.1795 16.8697C10.0301 16.711 9.82947 16.6317 9.57747 16.6317C9.32547 16.6317 9.12014 16.7157 8.96147 16.8837C8.81214 17.0424 8.73747 17.2524 8.73747 17.5137V21.2657C8.73747 21.527 8.81214 21.7417 8.96147 21.9097C9.12014 22.0684 9.32547 22.1477 9.57747 22.1477C9.82947 22.1477 10.0301 22.0684 10.1795 21.9097C10.3288 21.751 10.4035 21.5364 10.4035 21.2657V21.0977C10.4035 20.967 10.4735 20.9017 10.6135 20.9017L12.8255 20.9997C12.8908 20.9997 12.9421 21.0184 12.9795 21.0557C13.0168 21.093 13.0355 21.1444 13.0355 21.2097C13.0355 21.8444 12.8908 22.4044 12.6015 22.8897C12.3121 23.375 11.9061 23.7484 11.3835 24.0097C10.8608 24.271 10.2588 24.4017 9.57747 24.4017Z" fill="white"/>
<defs>
<linearGradient id="paint0_linear_2284_2942" x1="3.691" y1="-0.816896" x2="3.691" y2="13.2049" gradientUnits="userSpaceOnUse">
<stop stop-color="#FFB82D"/>
<stop offset="1" stop-color="#FF891B"/>
</linearGradient>
<linearGradient id="paint1_linear_2284_2942" x1="15.6898" y1="-0.817139" x2="15.6898" y2="13.2034" gradientUnits="userSpaceOnUse">
<stop stop-color="#FFB82D"/>
<stop offset="1" stop-color="#FF891B"/>
</linearGradient>
<linearGradient id="paint2_linear_2284_2942" x1="9.6908" y1="11.4409" x2="9.6908" y2="28.1065" gradientUnits="userSpaceOnUse">
<stop stop-color="#FFB82D"/>
<stop offset="1" stop-color="#FF891B"/>
</linearGradient>
</defs>
</svg>
