<svg width="13" height="15" viewBox="0 0 13 15" fill="none" xmlns="http://www.w3.org/2000/svg">
<path d="M6.61719 0.374756L0.242188 2.73076V3.26276C0.242188 9.49476 0.692187 11.6988 6.61719 14.8148C12.5422 11.6988 12.9922 9.41876 12.9922 3.26276V2.73076L6.61719 0.374756ZM6.61719 13.2188C2.04219 10.7108 1.66719 8.81076 1.66719 3.79476L6.61719 1.89476L11.5672 3.79476C11.5672 8.81076 11.1922 10.7108 6.61719 13.2188Z" fill="white"/>
<path d="M5.41758 5.39081L2.64258 5.77081L4.66758 7.74681L4.21758 10.5588L6.69258 9.26681L9.16758 10.5588L8.71758 7.74681L10.7426 5.77081L7.96758 5.39081L6.61758 2.88281L5.41758 5.39081ZM7.59258 6.75881L7.14258 7.21481L7.21758 7.89881L6.61758 7.59481L6.01758 7.89881L6.09258 7.21481L5.64258 6.75881L6.31758 6.68281L6.61758 6.07481L6.91758 6.68281L7.59258 6.75881Z" fill="white"/>
</svg>
