<svg width="20" height="20" viewBox="0 0 20 20" fill="none" xmlns="http://www.w3.org/2000/svg">
<path d="M11.1893 18.7966C10.9287 19.0571 10.5722 19.2217 10.1608 19.2217C9.36551 19.2217 8.70731 18.5635 8.70731 17.7682L8.70731 2.24574C8.70731 1.45043 9.36551 0.792231 10.1608 0.792231C10.9561 0.792231 11.6143 1.45043 11.6143 2.24574L11.6143 17.7682C11.628 18.1658 11.4498 18.5361 11.1893 18.7966Z" fill="#35BD79"/>
<path d="M18.9505 11.0354C18.6899 11.2959 18.3334 11.4605 17.922 11.4605L2.39961 11.4605C1.60429 11.4605 0.946098 10.8023 0.946098 10.007C0.946098 9.21164 1.60429 8.55345 2.39961 8.55345L17.922 8.55344C18.7174 8.55344 19.3756 9.21164 19.3756 10.007C19.3756 10.4183 19.211 10.7749 18.9505 11.0354Z" fill="#35BD79"/>
</svg>
