<svg width="147" height="147" viewBox="0 0 147 147" fill="none" xmlns="http://www.w3.org/2000/svg">
<rect x="8.04905" y="73.3269" width="92.9782" height="92.9782" transform="rotate(-45 8.04905 73.3269)" fill="url(#paint0_linear_0_8890)" stroke="#F2F2F2" stroke-width="10"/>
<g filter="url(#filter0_d_0_8890)">
<mask id="path-2-outside-1_0_8890" maskUnits="userSpaceOnUse" x="47.7949" y="51.9353" width="57" height="42" fill="black">
<rect fill="white" x="47.7949" y="51.9353" width="57" height="42"/>
<path d="M54.5849 91.9353C54.1816 91.9353 53.9433 91.697 53.8699 91.2203L49.3599 54.3703V54.1503C49.3599 53.9303 49.4333 53.7653 49.5799 53.6553C49.7266 53.5086 49.9283 53.4353 50.1849 53.4353H59.3149C59.7916 53.4353 60.0666 53.692 60.1399 54.2053L61.3499 75.7103C61.3866 75.8203 61.4416 75.8753 61.5149 75.8753C61.5883 75.8753 61.6433 75.8203 61.6799 75.7103L68.0049 54.2053C68.1883 53.692 68.4999 53.4353 68.9399 53.4353H77.8499C78.1433 53.4353 78.3449 53.527 78.4549 53.7103C78.5649 53.857 78.5649 54.077 78.4549 54.3703L64.7599 91.2203C64.5766 91.697 64.2649 91.9353 63.8249 91.9353H54.5849ZM86.7608 92.3753C83.0941 92.3753 80.1974 91.4953 78.0708 89.7353C75.9441 87.9386 74.8808 85.5553 74.8808 82.5853C74.8808 82.292 74.9174 81.7786 74.9908 81.0453L75.1558 79.7803C75.1924 79.5236 75.2841 79.322 75.4308 79.1753C75.6141 79.0286 75.8158 78.9553 76.0358 78.9553H84.3408C84.5608 78.9553 84.7258 79.0286 84.8358 79.1753C84.9824 79.322 85.0374 79.5236 85.0008 79.7803L84.9458 80.5503C84.8358 81.357 85.0741 82.0536 85.6608 82.6403C86.2474 83.227 87.0908 83.5203 88.1908 83.5203C89.1441 83.5203 89.8591 83.2636 90.3358 82.7503C90.8491 82.237 91.1058 81.6686 91.1058 81.0453C91.1058 80.422 90.8124 79.8903 90.2258 79.4503C89.6758 79.0103 88.6308 78.387 87.0908 77.5803L86.1008 77.0303C84.3774 76.1503 82.8741 75.2703 81.5908 74.3903C80.3441 73.4736 79.2624 72.3003 78.3458 70.8703C77.4658 69.4403 77.0258 67.7536 77.0258 65.8103C77.0258 63.317 77.6491 61.0986 78.8958 59.1553C80.1424 57.1753 81.8291 55.6536 83.9558 54.5903C86.1191 53.527 88.5208 52.9953 91.1608 52.9953C93.4708 52.9953 95.5058 53.417 97.2658 54.2603C99.0624 55.1036 100.456 56.2953 101.446 57.8353C102.436 59.3753 102.931 61.172 102.931 63.2253C102.931 63.5553 102.894 64.087 102.821 64.8203L102.711 65.7003C102.674 65.957 102.564 66.1586 102.381 66.3053C102.234 66.452 102.051 66.5253 101.831 66.5253H93.5258C93.2691 66.5253 93.0674 66.452 92.9208 66.3053C92.8108 66.1586 92.7741 65.957 92.8108 65.7003L92.9208 64.9303C93.0308 64.1236 92.8108 63.4086 92.2608 62.7853C91.7474 62.162 90.9591 61.8503 89.8958 61.8503C89.0524 61.8503 88.3558 62.107 87.8058 62.6203C87.2558 63.097 86.9808 63.7386 86.9808 64.5453C86.9808 65.2786 87.3474 65.957 88.0808 66.5803C88.8508 67.167 90.2624 67.992 92.3158 69.0553C92.8658 69.422 93.3974 69.7336 93.9108 69.9903C95.5241 70.9803 96.8074 71.8603 97.7608 72.6303C98.7141 73.3636 99.5208 74.2986 100.181 75.4353C100.841 76.572 101.171 77.9286 101.171 79.5053C101.171 79.7986 101.134 80.2753 101.061 80.9353C100.621 84.4553 99.0991 87.242 96.4958 89.2953C93.8924 91.3486 90.6474 92.3753 86.7608 92.3753Z"/>
</mask>
<path d="M54.5849 91.9353C54.1816 91.9353 53.9433 91.697 53.8699 91.2203L49.3599 54.3703V54.1503C49.3599 53.9303 49.4333 53.7653 49.5799 53.6553C49.7266 53.5086 49.9283 53.4353 50.1849 53.4353H59.3149C59.7916 53.4353 60.0666 53.692 60.1399 54.2053L61.3499 75.7103C61.3866 75.8203 61.4416 75.8753 61.5149 75.8753C61.5883 75.8753 61.6433 75.8203 61.6799 75.7103L68.0049 54.2053C68.1883 53.692 68.4999 53.4353 68.9399 53.4353H77.8499C78.1433 53.4353 78.3449 53.527 78.4549 53.7103C78.5649 53.857 78.5649 54.077 78.4549 54.3703L64.7599 91.2203C64.5766 91.697 64.2649 91.9353 63.8249 91.9353H54.5849ZM86.7608 92.3753C83.0941 92.3753 80.1974 91.4953 78.0708 89.7353C75.9441 87.9386 74.8808 85.5553 74.8808 82.5853C74.8808 82.292 74.9174 81.7786 74.9908 81.0453L75.1558 79.7803C75.1924 79.5236 75.2841 79.322 75.4308 79.1753C75.6141 79.0286 75.8158 78.9553 76.0358 78.9553H84.3408C84.5608 78.9553 84.7258 79.0286 84.8358 79.1753C84.9824 79.322 85.0374 79.5236 85.0008 79.7803L84.9458 80.5503C84.8358 81.357 85.0741 82.0536 85.6608 82.6403C86.2474 83.227 87.0908 83.5203 88.1908 83.5203C89.1441 83.5203 89.8591 83.2636 90.3358 82.7503C90.8491 82.237 91.1058 81.6686 91.1058 81.0453C91.1058 80.422 90.8124 79.8903 90.2258 79.4503C89.6758 79.0103 88.6308 78.387 87.0908 77.5803L86.1008 77.0303C84.3774 76.1503 82.8741 75.2703 81.5908 74.3903C80.3441 73.4736 79.2624 72.3003 78.3458 70.8703C77.4658 69.4403 77.0258 67.7536 77.0258 65.8103C77.0258 63.317 77.6491 61.0986 78.8958 59.1553C80.1424 57.1753 81.8291 55.6536 83.9558 54.5903C86.1191 53.527 88.5208 52.9953 91.1608 52.9953C93.4708 52.9953 95.5058 53.417 97.2658 54.2603C99.0624 55.1036 100.456 56.2953 101.446 57.8353C102.436 59.3753 102.931 61.172 102.931 63.2253C102.931 63.5553 102.894 64.087 102.821 64.8203L102.711 65.7003C102.674 65.957 102.564 66.1586 102.381 66.3053C102.234 66.452 102.051 66.5253 101.831 66.5253H93.5258C93.2691 66.5253 93.0674 66.452 92.9208 66.3053C92.8108 66.1586 92.7741 65.957 92.8108 65.7003L92.9208 64.9303C93.0308 64.1236 92.8108 63.4086 92.2608 62.7853C91.7474 62.162 90.9591 61.8503 89.8958 61.8503C89.0524 61.8503 88.3558 62.107 87.8058 62.6203C87.2558 63.097 86.9808 63.7386 86.9808 64.5453C86.9808 65.2786 87.3474 65.957 88.0808 66.5803C88.8508 67.167 90.2624 67.992 92.3158 69.0553C92.8658 69.422 93.3974 69.7336 93.9108 69.9903C95.5241 70.9803 96.8074 71.8603 97.7608 72.6303C98.7141 73.3636 99.5208 74.2986 100.181 75.4353C100.841 76.572 101.171 77.9286 101.171 79.5053C101.171 79.7986 101.134 80.2753 101.061 80.9353C100.621 84.4553 99.0991 87.242 96.4958 89.2953C93.8924 91.3486 90.6474 92.3753 86.7608 92.3753Z" fill="#1C1D4D"/>
<path d="M53.8699 91.2203L52.8773 91.3418L52.8792 91.3571L52.8816 91.3724L53.8699 91.2203ZM49.3599 54.3703H48.3599V54.4313L48.3673 54.4918L49.3599 54.3703ZM49.5799 53.6553L50.1799 54.4553L50.2368 54.4127L50.287 54.3624L49.5799 53.6553ZM60.1399 54.2053L61.1383 54.1491L61.1359 54.1063L61.1299 54.0639L60.1399 54.2053ZM61.3499 75.7103L60.3515 75.7665L60.359 75.8998L60.4012 76.0265L61.3499 75.7103ZM61.6799 75.7103L62.6286 76.0265L62.6343 76.0096L62.6393 75.9925L61.6799 75.7103ZM68.0049 54.2053L67.0632 53.869L67.0536 53.8958L67.0456 53.9231L68.0049 54.2053ZM78.4549 53.7103L77.5974 54.2248L77.624 54.269L77.6549 54.3103L78.4549 53.7103ZM78.4549 54.3703L77.5186 54.0192L77.5176 54.0219L78.4549 54.3703ZM64.7599 91.2203L65.6933 91.5793L65.6973 91.5687L64.7599 91.2203ZM54.5849 90.9353C54.5822 90.9353 54.6124 90.9349 54.6615 90.9532C54.714 90.9727 54.7671 91.0057 54.8108 91.0494C54.8944 91.1331 54.8761 91.1838 54.8583 91.0682L52.8816 91.3724C52.9371 91.7335 53.0746 92.1417 53.3966 92.4637C53.7394 92.8065 54.1739 92.9353 54.5849 92.9353V90.9353ZM54.8625 91.0988L50.3525 54.2488L48.3673 54.4918L52.8773 91.3418L54.8625 91.0988ZM50.3599 54.3703V54.1503H48.3599V54.3703H50.3599ZM50.3599 54.1503C50.3599 54.1503 50.3599 54.1976 50.3287 54.2677C50.295 54.3436 50.2409 54.4096 50.1799 54.4553L48.9799 52.8553C48.5298 53.1929 48.3599 53.6863 48.3599 54.1503H50.3599ZM50.287 54.3624C50.2717 54.3778 50.2538 54.3922 50.2342 54.4045C50.2148 54.4168 50.197 54.425 50.1829 54.4301C50.1551 54.4402 50.1509 54.4353 50.1849 54.4353V52.4353C49.7298 52.4353 49.2495 52.5716 48.8728 52.9482L50.287 54.3624ZM50.1849 54.4353H59.3149V52.4353H50.1849V54.4353ZM59.3149 54.4353C59.3455 54.4353 59.34 54.4395 59.3115 54.4298C59.2794 54.4188 59.2365 54.3963 59.1964 54.3589C59.1137 54.2818 59.1335 54.2313 59.15 54.3467L61.1299 54.0639C61.073 53.666 60.9186 53.2305 60.561 52.8967C60.1926 52.5529 59.7361 52.4353 59.3149 52.4353V54.4353ZM59.1415 54.2615L60.3515 75.7665L62.3483 75.6541L61.1383 54.1491L59.1415 54.2615ZM60.4012 76.0265C60.4815 76.2672 60.7773 76.8753 61.5149 76.8753V74.8753C61.7608 74.8753 61.9784 74.9795 62.1258 75.1269C62.2486 75.2498 62.29 75.3681 62.2986 75.3941L60.4012 76.0265ZM61.5149 76.8753C62.2525 76.8753 62.5484 76.2672 62.6286 76.0265L60.7312 75.3941C60.7399 75.3681 60.7812 75.2498 60.9041 75.1269C61.0515 74.9795 61.269 74.8753 61.5149 74.8753V76.8753ZM62.6393 75.9925L68.9643 54.4875L67.0456 53.9231L60.7206 75.4281L62.6393 75.9925ZM68.9467 54.5416C68.9981 54.3976 69.0362 54.3797 69.0119 54.3997C68.9985 54.4107 68.9789 54.4223 68.9571 54.4298C68.9365 54.4368 68.9281 54.4353 68.9399 54.4353V52.4353C68.5103 52.4353 68.0918 52.5665 67.7405 52.8559C67.4045 53.1325 67.1951 53.4996 67.0632 53.869L68.9467 54.5416ZM68.9399 54.4353H77.8499V52.4353H68.9399V54.4353ZM77.8499 54.4353C77.8979 54.4353 77.8714 54.4435 77.8074 54.4144C77.7736 54.3991 77.7336 54.3751 77.6936 54.3398C77.6534 54.3043 77.6212 54.2644 77.5974 54.2248L79.3124 53.1958C78.9574 52.6042 78.3484 52.4353 77.8499 52.4353V54.4353ZM77.6549 54.3103C77.5557 54.178 77.5374 54.0472 77.5374 53.9853C77.5374 53.9362 77.5479 53.9411 77.5186 54.0192L79.3913 54.7214C79.5355 54.3368 79.6823 53.6801 79.2549 53.1103L77.6549 54.3103ZM77.5176 54.0219L63.8226 90.8719L65.6973 91.5687L79.3923 54.7187L77.5176 54.0219ZM63.8266 90.8613C63.7816 90.9782 63.7522 90.9844 63.7812 90.9622C63.7956 90.9512 63.813 90.9423 63.8286 90.9374C63.843 90.9328 63.8441 90.9353 63.8249 90.9353V92.9353C64.2364 92.9353 64.6448 92.8195 64.9961 92.5509C65.3368 92.2904 65.5549 91.9391 65.6933 91.5793L63.8266 90.8613ZM63.8249 90.9353H54.5849V92.9353H63.8249V90.9353ZM78.0708 89.7353L77.4254 90.4992L77.4332 90.5057L78.0708 89.7353ZM74.9908 81.0453L73.9992 80.916L73.9972 80.9309L73.9957 80.9458L74.9908 81.0453ZM75.1558 79.7803L74.1658 79.6389L74.1642 79.651L75.1558 79.7803ZM75.4308 79.1753L74.8061 78.3944L74.7628 78.429L74.7237 78.4682L75.4308 79.1753ZM84.8358 79.1753L84.0358 79.7753L84.0784 79.8322L84.1287 79.8824L84.8358 79.1753ZM85.0008 79.7803L84.0108 79.6389L84.0058 79.6738L84.0033 79.7091L85.0008 79.7803ZM84.9458 80.5503L85.9366 80.6854L85.941 80.6536L85.9432 80.6215L84.9458 80.5503ZM85.6608 82.6403L86.3679 81.9332L86.3679 81.9332L85.6608 82.6403ZM90.3358 82.7503L89.6287 82.0432L89.6156 82.0563L89.603 82.0699L90.3358 82.7503ZM90.2258 79.4503L89.6011 80.2312L89.6133 80.2409L89.6258 80.2503L90.2258 79.4503ZM87.0908 77.5803L86.6051 78.4545L86.6159 78.4604L86.6268 78.4661L87.0908 77.5803ZM86.1008 77.0303L86.5864 76.1561L86.5711 76.1477L86.5556 76.1397L86.1008 77.0303ZM81.5908 74.3903L80.9984 75.196L81.0117 75.2057L81.0253 75.215L81.5908 74.3903ZM78.3458 70.8703L77.4941 71.3944L77.4989 71.4022L77.5039 71.41L78.3458 70.8703ZM78.8958 59.1553L79.7375 59.6953L79.742 59.6881L78.8958 59.1553ZM83.9558 54.5903L83.5147 53.6928L83.5086 53.6959L83.9558 54.5903ZM97.2658 54.2603L96.8336 55.1621L96.8409 55.1655L97.2658 54.2603ZM101.446 57.8353L100.605 58.3761L100.605 58.3761L101.446 57.8353ZM102.821 64.8203L103.813 64.9443L103.815 64.9321L103.816 64.9198L102.821 64.8203ZM102.711 65.7003L103.701 65.8417L103.702 65.833L103.703 65.8243L102.711 65.7003ZM102.381 66.3053L101.756 65.5244L101.713 65.559L101.674 65.5982L102.381 66.3053ZM92.9208 66.3053L92.1208 66.9053L92.1634 66.9622L92.2137 67.0124L92.9208 66.3053ZM92.8108 65.7003L93.8007 65.8417L93.8007 65.8417L92.8108 65.7003ZM92.9208 64.9303L93.9108 65.0717L93.9116 65.0654L92.9208 64.9303ZM92.2608 62.7853L91.4889 63.421L91.4997 63.4342L91.5109 63.4469L92.2608 62.7853ZM87.8058 62.6203L88.4607 63.376L88.4746 63.3639L88.4881 63.3514L87.8058 62.6203ZM88.0808 66.5803L87.4331 67.3422L87.4535 67.3595L87.4747 67.3757L88.0808 66.5803ZM92.3158 69.0553L92.8705 68.2233L92.8246 68.1927L92.7756 68.1673L92.3158 69.0553ZM93.9108 69.9903L94.4338 69.138L94.3968 69.1153L94.358 69.0959L93.9108 69.9903ZM97.7608 72.6303L97.1324 73.4082L97.1417 73.4157L97.1511 73.4229L97.7608 72.6303ZM100.181 75.4353L101.046 74.9332L101.046 74.9332L100.181 75.4353ZM101.061 80.9353L102.053 81.0593L102.055 81.0457L101.061 80.9353ZM96.4958 89.2953L97.1151 90.0805L97.1151 90.0805L96.4958 89.2953ZM86.7608 91.3753C83.25 91.3753 80.6042 90.5339 78.7083 88.9649L77.4332 90.5057C79.7907 92.4567 82.9383 93.3753 86.7608 93.3753V91.3753ZM78.7161 88.9714C76.8309 87.3788 75.8808 85.2833 75.8808 82.5853H73.8808C73.8808 85.8273 75.0573 88.4985 77.4254 90.4992L78.7161 88.9714ZM75.8808 82.5853C75.8808 82.3477 75.9123 81.8797 75.9858 81.1448L73.9957 80.9458C73.9226 81.6775 73.8808 82.2362 73.8808 82.5853H75.8808ZM75.9824 81.1746L76.1474 79.9096L74.1642 79.651L73.9992 80.916L75.9824 81.1746ZM76.1457 79.9217C76.1528 79.8719 76.1619 79.8514 76.1624 79.8504C76.1626 79.85 76.1608 79.8538 76.1564 79.8603C76.1519 79.8669 76.1457 79.8746 76.1379 79.8824L74.7237 78.4682C74.3893 78.8026 74.2253 79.2224 74.1658 79.6389L76.1457 79.9217ZM76.0555 79.9562C76.0632 79.95 76.0673 79.9476 76.0679 79.9473C76.0683 79.9471 76.066 79.9484 76.0613 79.9501C76.0565 79.9518 76.051 79.9533 76.0456 79.9543C76.0401 79.9552 76.0366 79.9553 76.0358 79.9553V77.9553C75.5729 77.9553 75.1539 78.1161 74.8061 78.3944L76.0555 79.9562ZM76.0358 79.9553H84.3408V77.9553H76.0358V79.9553ZM84.3408 79.9553C84.3407 79.9553 84.2935 79.9553 84.2234 79.9241C84.1475 79.8904 84.0815 79.8363 84.0358 79.7753L85.6358 78.5753C85.2982 78.1251 84.8048 77.9553 84.3408 77.9553V79.9553ZM84.1287 79.8824C84.078 79.8317 84.0402 79.7654 84.0223 79.6997C84.0063 79.6412 84.0144 79.6142 84.0108 79.6389L85.9907 79.9217C86.0596 79.4399 85.9673 78.8927 85.5429 78.4682L84.1287 79.8824ZM84.0033 79.7091L83.9483 80.4791L85.9432 80.6215L85.9982 79.8515L84.0033 79.7091ZM83.955 80.4152C83.8018 81.5384 84.151 82.5447 84.9537 83.3474L86.3679 81.9332C85.9972 81.5626 85.8698 81.1755 85.9366 80.6854L83.955 80.4152ZM84.9537 83.3474C85.7829 84.1766 86.915 84.5203 88.1908 84.5203V82.5203C87.2665 82.5203 86.712 82.2773 86.3679 81.9332L84.9537 83.3474ZM88.1908 84.5203C89.318 84.5203 90.3419 84.2133 91.0686 83.4308L89.603 82.0699C89.3763 82.3139 88.9702 82.5203 88.1908 82.5203V84.5203ZM91.0429 83.4574C91.7104 82.7899 92.1058 81.9776 92.1058 81.0453H90.1058C90.1058 81.3597 89.9878 81.684 89.6287 82.0432L91.0429 83.4574ZM92.1058 81.0453C92.1058 80.0493 91.614 79.2415 90.8258 78.6503L89.6258 80.2503C90.0109 80.5391 90.1058 80.7947 90.1058 81.0453H92.1058ZM90.8505 78.6694C90.2168 78.1625 89.093 77.5002 87.5548 76.6945L86.6268 78.4661C88.1686 79.2738 89.1348 79.8581 89.6011 80.2312L90.8505 78.6694ZM87.5764 76.7061L86.5864 76.1561L85.6151 77.9045L86.6051 78.4545L87.5764 76.7061ZM86.5556 76.1397C84.8617 75.2748 83.3969 74.4162 82.1563 73.5656L81.0253 75.215C82.3514 76.1244 83.8932 77.0258 85.646 77.9209L86.5556 76.1397ZM82.1832 73.5847C81.0445 72.7474 80.0446 71.6675 79.1877 70.3306L77.5039 71.41C78.4803 72.9331 79.6437 74.1999 80.9984 75.196L82.1832 73.5847ZM79.1974 70.3462C78.4289 69.0973 78.0258 67.5982 78.0258 65.8103H76.0258C76.0258 67.909 76.5027 69.7833 77.4941 71.3944L79.1974 70.3462ZM78.0258 65.8103C78.0258 63.4924 78.6025 61.4645 79.7375 59.6953L78.0541 58.6153C76.6958 60.7327 76.0258 63.1415 76.0258 65.8103H78.0258ZM79.742 59.6881C80.8896 57.8655 82.4371 56.4677 84.403 55.4847L83.5086 53.6959C81.2211 54.8396 79.3953 56.4851 78.0495 58.6225L79.742 59.6881ZM84.3969 55.4878C86.4103 54.4981 88.6589 53.9953 91.1608 53.9953V51.9953C88.3826 51.9953 85.8279 52.5558 83.5147 53.6929L84.3969 55.4878ZM91.1608 53.9953C93.3484 53.9953 95.2311 54.3942 96.8337 55.1621L97.6979 53.3585C95.7805 52.4397 93.5931 51.9953 91.1608 51.9953V53.9953ZM96.8409 55.1655C98.4822 55.9359 99.7249 57.0076 100.605 58.3761L102.287 57.2945C101.187 55.583 99.6427 54.2713 97.6907 53.3551L96.8409 55.1655ZM100.605 58.3761C101.479 59.7357 101.931 61.3397 101.931 63.2253H103.931C103.931 61.0043 103.393 59.0149 102.287 57.2945L100.605 58.3761ZM101.931 63.2253C101.931 63.5015 101.899 63.9904 101.826 64.7208L103.816 64.9198C103.889 64.1835 103.931 63.6091 103.931 63.2253H101.931ZM101.829 64.6963L101.719 65.5763L103.703 65.8243L103.813 64.9443L101.829 64.6963ZM101.721 65.5589C101.717 65.584 101.714 65.5818 101.723 65.5652C101.727 65.5574 101.733 65.5489 101.74 65.5409C101.746 65.5328 101.752 65.5274 101.756 65.5244L103.005 67.0862C103.409 66.7634 103.632 66.3217 103.701 65.8417L101.721 65.5589ZM101.674 65.5982C101.691 65.5807 101.722 65.558 101.762 65.5418C101.801 65.5261 101.828 65.5253 101.831 65.5253V67.5253C102.298 67.5253 102.741 67.3589 103.088 67.0124L101.674 65.5982ZM101.831 65.5253H93.5258V67.5253H101.831V65.5253ZM93.5258 65.5253C93.4918 65.5253 93.496 65.5204 93.5238 65.5305C93.5378 65.5356 93.5556 65.5438 93.5751 65.5561C93.5946 65.5684 93.6125 65.5828 93.6279 65.5982L92.2137 67.0124C92.5903 67.389 93.0706 67.5253 93.5258 67.5253V65.5253ZM93.7208 65.7053C93.7694 65.7702 93.7885 65.8315 93.7947 65.8652C93.7999 65.8938 93.7938 65.8905 93.8007 65.8417L91.8208 65.5589C91.7624 65.9681 91.7955 66.4716 92.1208 66.9053L93.7208 65.7053ZM93.8007 65.8417L93.9107 65.0717L91.9308 64.7889L91.8208 65.5589L93.8007 65.8417ZM93.9116 65.0654C94.0618 63.9639 93.7483 62.9597 93.0106 62.1237L91.5109 63.4469C91.8733 63.8576 91.9997 64.2834 91.93 64.7952L93.9116 65.0654ZM93.0327 62.1496C92.2732 61.2273 91.1565 60.8503 89.8958 60.8503V62.8503C90.7617 62.8503 91.2217 63.0966 91.4889 63.421L93.0327 62.1496ZM89.8958 60.8503C88.8323 60.8503 87.8815 61.1817 87.1235 61.8892L88.4881 63.3514C88.8301 63.0322 89.2726 62.8503 89.8958 62.8503V60.8503ZM87.1509 61.8646C86.3564 62.5532 85.9808 63.4839 85.9808 64.5453H87.9808C87.9808 63.9934 88.1552 63.6408 88.4607 63.376L87.1509 61.8646ZM85.9808 64.5453C85.9808 65.6574 86.5508 66.5922 87.4331 67.3422L88.7284 65.8184C88.1441 65.3217 87.9808 64.8998 87.9808 64.5453H85.9808ZM87.4747 67.3757C88.3208 68.0204 89.8022 68.8798 91.8559 69.9433L92.7756 68.1673C90.7227 67.1042 89.3808 66.3136 88.6868 65.7849L87.4747 67.3757ZM91.7611 69.8874C92.3405 70.2737 92.9081 70.607 93.4636 70.8847L94.358 69.0959C93.8868 68.8603 93.391 68.5703 92.8705 68.2233L91.7611 69.8874ZM93.3878 70.8426C94.9819 71.8208 96.2254 72.6756 97.1324 73.4082L98.3891 71.8524C97.3895 71.045 96.0664 70.1398 94.4338 69.138L93.3878 70.8426ZM97.1511 73.4229C97.9921 74.0699 98.7152 74.9028 99.316 75.9374L101.046 74.9332C100.326 73.6945 99.4361 72.6574 98.3705 71.8377L97.1511 73.4229ZM99.316 75.9374C99.8713 76.8937 100.171 78.0698 100.171 79.5053H102.171C102.171 77.7875 101.81 76.2502 101.046 74.9332L99.316 75.9374ZM100.171 79.5053C100.171 79.7387 100.14 80.1676 100.067 80.8249L102.055 81.0457C102.128 80.383 102.171 79.8586 102.171 79.5053H100.171ZM100.069 80.8113C99.6586 84.0906 98.258 86.6317 95.8765 88.5101L97.1151 90.0805C99.9402 87.8522 101.583 84.82 102.053 81.0593L100.069 80.8113ZM95.8765 88.5101C93.4788 90.4012 90.4631 91.3753 86.7608 91.3753V93.3753C90.8318 93.3753 94.306 92.296 97.1151 90.0805L95.8765 88.5101Z" fill="white" mask="url(#path-2-outside-1_0_8890)"/>
</g>
<defs>
<filter id="filter0_d_0_8890" x="49.3604" y="52.9954" width="53.5703" height="41.3799" filterUnits="userSpaceOnUse" color-interpolation-filters="sRGB">
<feFlood flood-opacity="0" result="BackgroundImageFix"/>
<feColorMatrix in="SourceAlpha" type="matrix" values="0 0 0 0 0 0 0 0 0 0 0 0 0 0 0 0 0 0 127 0" result="hardAlpha"/>
<feOffset dy="2"/>
<feComposite in2="hardAlpha" operator="out"/>
<feColorMatrix type="matrix" values="0 0 0 0 0 0 0 0 0 0 0 0 0 0 0 0 0 0 0.15 0"/>
<feBlend mode="normal" in2="BackgroundImageFix" result="effect1_dropShadow_0_8890"/>
<feBlend mode="normal" in="SourceGraphic" in2="effect1_dropShadow_0_8890" result="shape"/>
</filter>
<linearGradient id="paint0_linear_0_8890" x1="15.1201" y1="114.816" x2="96.1184" y2="114.816" gradientUnits="userSpaceOnUse">
<stop stop-color="#6AFFAB"/>
<stop offset="1" stop-color="#C8FF24"/>
</linearGradient>
</defs>
</svg>
