<svg width="16" height="14" viewBox="0 0 16 14" fill="none" xmlns="http://www.w3.org/2000/svg">
<path d="M3.73663 13.428C3.60463 13.428 3.52063 13.368 3.48463 13.248L0.298633 1.06198L0.280633 0.989978C0.280633 0.881978 0.346633 0.827978 0.478633 0.827978H2.71063C2.83063 0.827978 2.90863 0.887978 2.94463 1.00798L4.65463 8.33398C4.66663 8.38198 4.68463 8.40598 4.70863 8.40598C4.73263 8.40598 4.75063 8.38198 4.76263 8.33398L6.41863 1.02598C6.45463 0.893978 6.53263 0.827978 6.65263 0.827978H8.83063C8.96263 0.827978 9.04663 0.887978 9.08263 1.00798L10.8826 8.33398C10.8946 8.36998 10.9126 8.39398 10.9366 8.40598C10.9606 8.40598 10.9786 8.38198 10.9906 8.33398L12.6466 1.02598C12.6826 0.893978 12.7606 0.827978 12.8806 0.827978H15.0046C15.1726 0.827978 15.2386 0.905978 15.2026 1.06198L12.2506 13.248C12.2146 13.368 12.1306 13.428 11.9986 13.428H9.85663C9.73663 13.428 9.65863 13.368 9.62263 13.248L7.78663 5.45398C7.77463 5.40598 7.75663 5.38198 7.73263 5.38198C7.70863 5.38198 7.69063 5.40598 7.67863 5.45398L5.96863 13.23C5.94463 13.362 5.86663 13.428 5.73463 13.428H3.73663Z" fill="white"/>
</svg>
