<svg width="23" height="23" viewBox="0 0 23 23" fill="none" xmlns="http://www.w3.org/2000/svg">
<path d="M21.0807 6.46842H18.408C17.832 6.46842 17.5439 6.46842 17.2723 6.38618C17.0007 6.30395 16.761 6.14417 16.2817 5.82462C15.5627 5.34529 14.7425 4.79848 14.335 4.67511C13.9276 4.55176 13.4955 4.55176 12.6314 4.55176C11.4563 4.55176 10.6988 4.55176 10.1705 4.7706C9.64216 4.98945 9.22668 5.40493 8.39572 6.23589L7.66444 6.96718C7.47717 7.15445 7.38353 7.24809 7.32572 7.34053C7.11144 7.68322 7.13519 8.12351 7.38508 8.44116C7.4525 8.52686 7.55567 8.60988 7.76198 8.77592C8.52461 9.38965 9.62405 9.3284 10.3146 8.6337L11.4974 7.44387H12.4557L18.2057 13.2281C18.735 13.7605 18.735 14.6237 18.2057 15.1562C17.6764 15.6886 16.8184 15.6886 16.2891 15.1562L15.8099 14.6741M15.8099 14.6741L12.9349 11.7821M15.8099 14.6741C16.3392 15.2066 16.3392 16.0698 15.8099 16.6022C15.2806 17.1346 14.4225 17.1346 13.8932 16.6022L12.9349 15.6382M12.9349 15.6382C13.4642 16.1706 13.4642 17.0338 12.9349 17.5663C12.4056 18.0986 11.5475 18.0986 11.0182 17.5663L9.58073 16.1202M12.9349 15.6382L11.0182 13.7215M9.58073 16.1202L9.10156 15.6382M9.58073 16.1202C10.11 16.6526 10.11 17.5159 9.58073 18.0483C9.05146 18.5807 8.19334 18.5807 7.66406 18.0483L4.95808 15.2859C4.40204 14.7183 4.12402 14.4345 3.76781 14.2848C3.41161 14.1351 3.01431 14.1351 2.21971 14.1351H1.91406" stroke="white" stroke-linecap="round" stroke-linejoin="round"/>
<path d="M21.0833 14.1357H18.6875" stroke="white" stroke-linecap="round"/>
<path d="M8.14323 6.46875H1.91406" stroke="white" stroke-linecap="round"/>
</svg>
