<svg width="68" height="77" viewBox="0 0 68 77" fill="none" xmlns="http://www.w3.org/2000/svg">
<circle cx="22.7266" cy="64.4023" r="11.8984" fill="#FFD000"/>
<circle cx="22.7266" cy="64.4023" r="6.69531" fill="white" fill-opacity="0.7"/>
<path fill-rule="evenodd" clip-rule="evenodd" d="M2.76239 1.9294C3.80339 1.60232 4.87892 1.72497 5.77524 2.19357C6.67157 2.65901 7.39173 3.47038 7.71885 4.51138C8.04592 5.55238 7.92327 6.62792 7.45467 7.52424C7.37919 7.66891 7.29742 7.80728 7.20622 7.93937L7.87609 10.0968C10.5618 8.49601 13.4993 7.54309 16.6976 7.2349C20.2955 6.88895 24.2077 7.36699 28.4344 8.66895C28.4501 8.67524 28.4659 8.67839 28.4816 8.68468C38.7531 12.4177 47.4893 9.65016 54.6885 0.384861C55.025 -0.0491379 55.6477 -0.127764 56.0817 0.208745C56.2484 0.33769 56.3616 0.507511 56.4183 0.693063L64.0101 24.7552L64.0133 24.7615L67.2368 34.9823L67.24 34.9886L67.2431 34.998L67.2494 35.0137L67.2526 35.02C67.2966 35.1773 67.2966 35.3345 67.2651 35.4855V35.4918L67.262 35.4949L67.2589 35.5012C67.2368 35.5987 67.1991 35.693 67.1488 35.7842L67.1393 35.8L67.1362 35.8062L67.1299 35.8157L67.1205 35.8314C67.1016 35.8597 67.0827 35.8849 67.0639 35.91C59.2864 45.911 49.8137 48.8891 38.6558 44.8451C35.6901 43.933 32.9037 43.4487 30.2964 43.3984C30.2492 43.4015 30.202 43.4015 30.1517 43.3952C29.3183 43.3827 28.5038 43.4173 27.7081 43.4927C24.5852 43.7915 21.7358 44.7727 19.1506 46.4363L24.9426 63.8711C25.103 64.3932 24.8105 64.9498 24.2884 65.1071L21.5428 65.9594C21.0208 66.1198 20.4642 65.8273 20.3069 65.3052L2.58023 9.40504C2.42612 9.34843 2.27203 9.27924 2.12736 9.20376C1.23103 8.7383 0.510869 7.92695 0.183755 6.88595C-0.143358 5.84495 -0.020668 4.76941 0.447935 3.87309C0.913381 2.97677 1.72475 2.2566 2.76575 1.92949L2.76239 1.9294ZM25.6603 31.215L22.4808 21.1351C21.8707 21.1446 21.27 21.176 20.6788 21.2326C17.6313 21.5251 14.8386 22.4686 12.3041 24.0599L15.4899 34.1551C18.1693 32.5606 21.1036 31.6108 24.2929 31.3026C24.7457 31.2586 25.2017 31.2271 25.6609 31.2114L25.6603 31.215ZM35.8183 21.7583L32.708 11.899C31.1197 11.6097 29.4938 11.1631 27.8302 10.5592C25.3583 9.79815 23.0121 9.33587 20.7887 9.17541L23.9462 19.1861C26.5596 19.3024 29.3209 19.8088 32.2267 20.7051C32.2424 20.7113 32.2581 20.7145 32.2739 20.7208C33.4752 21.1579 34.6577 21.5039 35.8182 21.7649L35.8183 21.7583ZM42.841 44.0178L40.3031 35.9668C38.7117 35.6774 37.0858 35.234 35.4221 34.6301C32.9534 33.8691 30.6041 33.4099 28.3838 33.2463L30.9689 41.4423C33.5823 41.5586 36.3436 42.065 39.2494 42.9613C39.2651 42.9676 39.2808 42.9707 39.2965 42.977C40.4979 43.4141 41.6804 43.7601 42.8408 44.0211L42.841 44.0178ZM52.8831 32.4919L49.691 22.3782C46.2599 23.9822 42.5897 24.6017 38.6804 24.2337L41.8253 34.2001C44.8067 34.587 47.6372 34.3574 50.3135 33.5145C51.1846 33.2409 52.0402 32.8976 52.8831 32.4919ZM55.2733 33.47L57.8773 41.7255C60.4655 40.1562 62.8998 37.9453 65.183 35.0865L62.6733 27.1267C60.3555 29.8377 57.8898 31.9511 55.2764 33.4701L55.2733 33.47ZM47.6845 9.41106L50.8577 19.4652C53.446 17.8959 55.8802 15.685 58.1634 12.8262L55.0814 3.05147C52.7604 5.77183 50.2948 7.88837 47.6877 9.4105L47.6845 9.41106Z" fill="#1C1D4D"/>
</svg>
