<svg width="17" height="17" viewBox="0 0 17 17" fill="none" xmlns="http://www.w3.org/2000/svg">
<path fill-rule="evenodd" clip-rule="evenodd" d="M2.17708 0C0.974716 0 0 0.974716 0 2.17708V14.0521C0 15.2545 0.974716 16.2292 2.17708 16.2292H14.0521C15.2545 16.2292 16.2292 15.2545 16.2292 14.0521V2.17708C16.2292 0.974716 15.2545 0 14.0521 0H2.17708ZM11.8894 6.24639C12.1693 5.9105 12.124 5.41131 11.7881 5.1314C11.4522 4.8515 10.9529 4.89688 10.6731 5.23277L7.26972 9.31681L5.90355 7.95063C5.59438 7.64148 5.09312 7.64148 4.78395 7.95063C4.47479 8.25977 4.47479 8.76106 4.78395 9.0702L6.76313 11.0494C6.92043 11.2067 7.13656 11.2905 7.35878 11.2805C7.581 11.2703 7.78873 11.1672 7.93107 10.9964L11.8894 6.24639Z" fill="#2BB650"/>
</svg>
