<svg width="10" height="16" viewBox="0 0 10 16" fill="none" xmlns="http://www.w3.org/2000/svg">
<path d="M9.22656 13.6035C9.22651 13.3274 9.11896 13.0661 8.92383 12.8711L3.72949 7.67773L8.91797 2.48926C9.11292 2.29415 9.2207 2.03315 9.2207 1.75684C9.22069 1.51488 9.13853 1.28492 8.9873 1.10059L8.91797 1.02441L8.44434 0.553711V0.554688C8.24884 0.358824 7.98512 0.252053 7.70996 0.251953H7.70898C7.46939 0.25229 7.23524 0.333372 7.04883 0.485352L6.97168 0.554688L0.571289 6.94336C0.390229 7.12456 0.246094 7.38218 0.246094 7.67578V7.67773C0.246094 7.97264 0.389802 8.22958 0.571289 8.41113V8.41211L6.98926 14.8066C7.39288 15.2103 8.04945 15.2103 8.45312 14.8066L8.92383 14.3359C9.11896 14.1408 9.22656 13.8797 9.22656 13.6035Z" fill="#1C1D4D" stroke="#1C1D4D" stroke-width="0.5"/>
</svg>
