<svg width="37" height="37" viewBox="0 0 37 37" fill="none" xmlns="http://www.w3.org/2000/svg">
<path d="M22.3568 13.8737C22.3568 16.0023 20.6312 17.7279 18.5026 17.7279C16.374 17.7279 14.6484 16.0023 14.6484 13.8737C14.6484 11.7451 16.374 10.0195 18.5026 10.0195C20.6312 10.0195 22.3568 11.7451 22.3568 13.8737Z" stroke="#1C1D4D" stroke-width="2.5"/>
<path d="M20.4411 26.968C19.9211 27.4687 19.2261 27.7487 18.5029 27.7487C17.7796 27.7487 17.0846 27.4687 16.5646 26.968C11.803 22.3541 5.42186 17.1998 8.53374 9.71695C10.2163 5.67098 14.2552 3.08203 18.5029 3.08203C22.7505 3.08203 26.7894 5.671 28.4719 9.71695C31.5799 17.1904 25.2144 22.37 20.4411 26.968Z" stroke="#1C1D4D" stroke-width="2.5"/>
<path d="M27.75 30.832C27.75 32.535 23.6086 33.9154 18.5 33.9154C13.3914 33.9154 9.25 32.535 9.25 30.832" stroke="#1C1D4D" stroke-width="2.5" stroke-linecap="round"/>
</svg>
