<svg width="27" height="28" viewBox="0 0 27 28" fill="none" xmlns="http://www.w3.org/2000/svg">
<path fill-rule="evenodd" clip-rule="evenodd" d="M13.1505 26.4616L13.1568 26.4646C13.3749 26.5652 13.6245 26.5654 13.8427 26.465L13.8468 26.463C13.8724 26.4509 13.9353 26.421 13.9728 26.4027C14.0527 26.3637 14.1676 26.3066 14.3124 26.2315C14.6018 26.0814 15.0118 25.8594 15.5022 25.5675C16.4808 24.9847 17.7896 24.1181 19.1026 22.9834C21.7003 20.7384 24.4688 17.3071 24.4688 12.832C24.4688 6.54979 19.5579 1.45703 13.5 1.45703C7.44212 1.45703 2.53125 6.54979 2.53125 12.832C2.53125 17.3071 5.29962 20.7384 7.89734 22.9834C9.21041 24.1181 10.5192 24.9847 11.4978 25.5675C11.9882 25.8594 12.3982 26.0814 12.6876 26.2315C12.8288 26.3047 13.0646 26.4197 13.1505 26.4616ZM14.625 8.7487C14.625 8.10437 14.1213 7.58203 13.5 7.58203C12.8787 7.58203 12.375 8.10437 12.375 8.7487V11.6654H9.5625C8.94118 11.6654 8.4375 12.1877 8.4375 12.832C8.4375 13.4764 8.94118 13.9987 9.5625 13.9987H12.375V16.9154C12.375 17.5597 12.8787 18.082 13.5 18.082C14.1213 18.082 14.625 17.5597 14.625 16.9154V13.9987H17.4375C18.0588 13.9987 18.5625 13.4764 18.5625 12.832C18.5625 12.1877 18.0588 11.6654 17.4375 11.6654H14.625V8.7487Z" fill="#1C1D4D"/>
</svg>
