<svg width="24" height="24" viewBox="0 0 24 24" fill="none" xmlns="http://www.w3.org/2000/svg">
<path d="M5.53318 17C4.11134 19.0062 3.753 20.0652 4.15312 20.9156C4.19277 20.9999 4.23919 21.0812 4.29198 21.1589C4.86363 22 6.34102 22 9.29581 22H14.704C17.6588 22 19.1362 22 19.7078 21.1589C19.7606 21.0812 19.807 20.9999 19.8467 20.9156C20.2468 20.0652 19.889 19.0062 18.4672 17" stroke="#1C1D4D" stroke-linecap="round" stroke-linejoin="round"/>
<path d="M12.9981 7H11.0019C8.13196 7 6.19701 10.0691 7.32753 12.828C7.48501 13.2124 7.84633 13.4615 8.24612 13.4615H8.9491C9.18605 13.4615 9.39259 13.6302 9.45006 13.8706L10.3551 17.6567C10.5438 18.4462 11.222 19 12 19C12.778 19 13.4562 18.4462 13.6449 17.6567L14.5499 13.8706C14.6074 13.6302 14.814 13.4615 15.0509 13.4615H15.7539C16.1537 13.4615 16.515 13.2124 16.6725 12.828C17.803 10.0691 15.868 7 12.9981 7Z" stroke="#1C1D4D"/>
<path d="M14.5 4.5C14.5 5.88071 13.3807 7 12 7C10.6193 7 9.5 5.88071 9.5 4.5C9.5 3.11929 10.6193 2 12 2C13.3807 2 14.5 3.11929 14.5 4.5Z" stroke="#1C1D4D"/>
</svg>
