<svg width="34" height="45" viewBox="0 0 34 45" fill="none" xmlns="http://www.w3.org/2000/svg">
<circle cx="5.94868" cy="5.94868" r="5.94868" transform="matrix(-1 0 0 1 27.0078 32.4453)" fill="#FFD000"/>
<circle cx="4.23798" cy="4.23798" r="4.23798" transform="matrix(-1 0 0 1 25.2969 34.1562)" fill="white"/>
<path fill-rule="evenodd" clip-rule="evenodd" d="M32.2596 0.96461C31.7391 0.801088 31.2014 0.862408 30.7533 1.09668C30.3051 1.32939 29.9451 1.73503 29.7816 2.25548C29.618 2.77594 29.6793 3.31366 29.9136 3.76178C29.9514 3.83411 29.9922 3.90329 30.0378 3.96932L29.7029 5.04794C28.3602 4.24762 26.8916 3.7712 25.2926 3.61712C23.4938 3.44416 21.5379 3.68316 19.4247 4.33408C19.4168 4.33723 19.409 4.3388 19.4011 4.34194C14.2658 6.20829 9.89814 4.82464 6.29885 0.192413C6.13061 -0.0245667 5.81929 -0.0638764 5.6023 0.104363C5.51896 0.16883 5.46236 0.253732 5.43406 0.3465L1.63845 12.3765L1.63689 12.3796L0.0252571 17.4896L0.0236816 17.4927L0.02211 17.4974L0.0189667 17.5053L0.0173912 17.5084C-0.00462341 17.587 -0.0046196 17.6656 0.0111046 17.7411V17.7443L0.0126762 17.7458L0.0142479 17.749C0.0252533 17.7977 0.0441246 17.8449 0.0692825 17.8905L0.0739975 17.8984L0.0755692 17.9015L0.0787163 17.9062L0.0834312 17.9141C0.092865 17.9282 0.102299 17.9408 0.111732 17.9534C4.00011 22.9534 8.73602 24.4423 14.3145 22.4205C15.7972 21.9645 17.1903 21.7224 18.4938 21.6972C18.5174 21.6988 18.541 21.6988 18.5661 21.6956C18.9828 21.6894 19.39 21.7067 19.7878 21.7444C21.3492 21.8938 22.7737 22.3843 24.0662 23.2161L19.4608 38.7488C19.3806 39.0098 19.5268 39.2881 19.7878 39.3667L21.1605 39.7928C21.4215 39.873 21.6998 39.7268 21.7784 39.4658L32.3506 4.70209C32.4277 4.67379 32.5047 4.6392 32.577 4.60146C33.0252 4.36876 33.3852 3.96311 33.5488 3.44266C33.7123 2.92221 33.651 2.38449 33.4167 1.93637C33.184 1.48825 32.7783 1.1282 32.2579 0.964656L32.2596 0.96461ZM20.8116 15.6061L22.4012 10.5666C22.7063 10.5713 23.0066 10.5871 23.3022 10.6154C24.8258 10.7616 26.222 11.2333 27.4891 12.0289L25.8964 17.076C24.5568 16.2788 23.0898 15.804 21.4953 15.6499C21.2689 15.6279 21.0409 15.6122 20.8113 15.6043L20.8116 15.6061ZM15.7331 10.8782L17.2881 5.94896C18.0822 5.8043 18.895 5.58103 19.7268 5.27913C20.9626 4.89863 22.1356 4.66751 23.2472 4.58729L21.6686 9.59216C20.362 9.65034 18.9815 9.90349 17.5287 10.3516C17.5209 10.3547 17.513 10.3563 17.5052 10.3595C16.9045 10.578 16.3134 10.751 15.7332 10.8815L15.7331 10.8782ZM12.2221 22.0069L13.4909 17.9818C14.2865 17.8371 15.0994 17.6154 15.9312 17.3135C17.1654 16.933 18.34 16.7034 19.45 16.6217L18.1576 20.7193C16.851 20.7774 15.4705 21.0306 14.0177 21.4787C14.0099 21.4818 14.002 21.4834 13.9941 21.4865C13.3935 21.7051 12.8023 21.8781 12.2221 22.0086L12.2221 22.0069ZM7.20149 16.2445L8.79738 11.1881C10.5128 11.99 12.3477 12.2997 14.3022 12.1158L12.7299 17.0985C11.2393 17.2919 9.8242 17.1771 8.48616 16.7557C8.05064 16.619 7.62288 16.4473 7.20149 16.2445ZM6.0065 16.7335L4.70461 20.8609C3.4106 20.0763 2.1936 18.9709 1.0521 17.5417L2.30682 13.5621C3.46563 14.9175 4.69833 15.9741 6.00493 16.7335L6.0065 16.7335ZM9.80053 4.7051L8.21406 9.73172C6.92005 8.94713 5.70305 7.84179 4.56155 6.41253L6.10242 1.5256C7.26279 2.88565 8.49549 3.94383 9.79896 4.70482L9.80053 4.7051Z" fill="#1C1D4D"/>
</svg>
