<svg width="29" height="22" viewBox="0 0 29 22" fill="none" xmlns="http://www.w3.org/2000/svg">
<path d="M2.30736 12.7184C1.34557 14.4547 1.07673 16.6037 1.00158 17.6695C0.975676 18.0367 1.27126 18.3333 1.63989 18.3333H3.6423M2.30736 12.7184C2.30736 8.52533 3.52792 3.46539 5.96904 1.28163C6.1842 1.08915 6.46832 1 6.75716 1H13.1491C13.9215 1 14.6925 1.15613 15.3404 1.57629C16.9385 2.61271 19.3536 4.70628 21.4051 7.91912C21.5748 8.18479 21.8281 8.3864 22.1247 8.49387C23.3056 8.922 24.6204 9.516 25.4617 9.91187C26.0297 10.1792 26.4821 10.6455 26.6973 11.2347C27.2899 12.8573 27.6243 14.6677 27.6667 17.6659C27.6717 18.034 27.3724 18.3333 27.0037 18.3333H25.0013M2.30736 12.7184C2.78846 11.8497 3.44296 11.0845 4.33333 10.6097M19.6616 18.3333H8.98205" stroke="#1C1D4D" stroke-width="2" stroke-linecap="round" stroke-linejoin="round"/>
<path d="M9.00521 18.3346C9.00521 19.8074 7.8113 21.0013 6.33854 21.0013C4.86578 21.0013 3.67188 19.8074 3.67188 18.3346C3.67188 16.8618 4.86578 15.668 6.33854 15.668C7.8113 15.668 9.00521 16.8618 9.00521 18.3346Z" stroke="#1C1D4D" stroke-width="2"/>
<path d="M25.0052 18.3346C25.0052 19.8074 23.8113 21.0013 22.3385 21.0013C20.8657 21.0013 19.6719 19.8074 19.6719 18.3346C19.6719 16.8618 20.8657 15.668 22.3385 15.668C23.8113 15.668 25.0052 16.8618 25.0052 18.3346Z" stroke="#1C1D4D" stroke-width="2"/>
<path d="M21.6719 8.33333C17.6719 7 13.0052 6.33333 7.67188 7C7.67188 4.33333 9.00521 1.66667 9.67188 1" stroke="#1C1D4D" stroke-width="2" stroke-linecap="round" stroke-linejoin="round"/>
<path d="M9 9.66797H10.3333" stroke="#1C1D4D" stroke-width="2" stroke-linecap="round" stroke-linejoin="round"/>
</svg>
