<svg width="89" height="89" viewBox="0 0 89 89" fill="none" xmlns="http://www.w3.org/2000/svg">
<path d="M25.9609 81.582V45.5211C25.9609 41.5094 25.9609 39.5036 26.8679 37.8211C27.7749 36.1386 29.4409 35.0539 32.773 32.8845L40.492 27.8591C42.4397 26.591 43.4135 25.957 44.5026 25.957C45.5917 25.957 46.5655 26.591 48.5132 27.8591L56.2321 32.8845C59.5644 35.0539 61.2302 36.1386 62.1372 37.8211C63.0443 39.5036 63.0443 41.5094 63.0443 45.5211V81.582" stroke="#1C1D4D" stroke-width="3" stroke-linecap="round" stroke-linejoin="round"/>
<path d="M44.5 48.207H44.5334" stroke="#1C1D4D" stroke-width="3" stroke-linecap="round" stroke-linejoin="round"/>
<path d="M74.1641 81.5846V63.6448C74.1641 55.1468 70.6619 54.4589 63.0391 51.918" stroke="#1C1D4D" stroke-width="3" stroke-linecap="round" stroke-linejoin="round"/>
<path d="M14.8359 81.5846V63.6448C14.8359 55.1468 18.338 54.4589 25.9609 51.918" stroke="#1C1D4D" stroke-width="3" stroke-linecap="round" stroke-linejoin="round"/>
<path d="M7.41406 81.582H81.5807" stroke="#1C1D4D" stroke-width="3" stroke-linecap="round" stroke-linejoin="round"/>
<path d="M44.5 25.9597V18.477M44.5 18.477V11.0164C44.5 9.25787 44.5 8.37863 45.0429 7.83232C46.7476 6.11781 53.7708 10.1734 56.4419 11.818C58.6974 13.2069 59.3333 15.981 59.3333 18.477H44.5Z" stroke="#1C1D4D" stroke-width="3" stroke-linecap="round" stroke-linejoin="round"/>
<path d="M37.0859 81.5846V70.4596C37.0859 66.9634 37.0859 65.2153 38.1721 64.1291C39.2583 63.043 41.0064 63.043 44.5026 63.043C47.9988 63.043 49.7469 63.043 50.8331 64.1291C51.9193 65.2153 51.9193 66.9634 51.9193 70.4596V81.5846" stroke="#1C1D4D" stroke-width="3" stroke-linecap="round" stroke-linejoin="round"/>
</svg>
