<svg width="60" height="37" viewBox="0 0 60 37" fill="none" xmlns="http://www.w3.org/2000/svg">
<path d="M55.0656 2.5L53.0158 6.20898L38.1086 33.1846L37.3947 34.4756H4.23749L6.28729 30.7666L21.1945 3.79102L21.9084 2.5H55.0656Z" fill="#1C1D4D" stroke="white" stroke-width="5"/>
<path d="M22.2494 19.9133H30.9554C30.9789 19.9135 31.0017 19.9207 31.0211 19.9339C31.0405 19.947 31.0556 19.9656 31.0645 19.9874C31.0733 20.0091 31.0755 20.0329 31.0709 20.0559C31.0662 20.0789 31.0548 20.1 31.0382 20.1165L26.4406 24.6223C26.4235 24.6389 26.4118 24.6603 26.4071 24.6837C26.4024 24.7071 26.405 24.7314 26.4145 24.7533C26.424 24.7752 26.4399 24.7937 26.4602 24.8063C26.4804 24.8189 26.5041 24.8251 26.5279 24.8239L30.835 24.705C30.8502 24.7049 30.8652 24.7018 30.8791 24.6959C30.8931 24.6899 30.9057 24.6813 30.9163 24.6704L37.1422 18.592C37.1538 18.5808 37.163 18.5673 37.1693 18.5525C37.1756 18.5376 37.1789 18.5216 37.1789 18.5055C37.1789 18.4893 37.1756 18.4733 37.1693 18.4585C37.163 18.4436 37.1538 18.4302 37.1422 18.4189L30.9494 12.187C30.9377 12.1756 30.9238 12.1666 30.9085 12.1607C30.8933 12.1547 30.877 12.1519 30.8606 12.1524L26.9328 12.2201C26.9096 12.2206 26.8871 12.2279 26.868 12.241C26.8489 12.254 26.8341 12.2724 26.8253 12.2938C26.8165 12.3153 26.8142 12.3388 26.8186 12.3615C26.8229 12.3842 26.8339 12.4052 26.85 12.4218L31.0111 16.7063C31.0274 16.7227 31.0385 16.7436 31.043 16.7663C31.0475 16.789 31.0452 16.8126 31.0364 16.834C31.0275 16.8553 31.0125 16.8736 30.9933 16.8865C30.9741 16.8995 30.9515 16.9064 30.9283 16.9065H22.3879C22.3471 16.9057 22.3064 16.9027 22.266 16.8974C22.2493 16.8951 22.2324 16.8963 22.2163 16.901C22.2002 16.9058 22.1853 16.9139 22.1726 16.9249C22.1599 16.9359 22.1497 16.9494 22.1427 16.9647C22.1357 16.98 22.1321 16.9965 22.132 17.0133V19.7959C22.132 19.8271 22.1444 19.8569 22.1664 19.8789C22.1884 19.901 22.2183 19.9133 22.2494 19.9133Z" fill="white"/>
</svg>
