<svg width="28" height="28" viewBox="0 0 28 28" fill="none" xmlns="http://www.w3.org/2000/svg">
<path d="M5.83594 11.6415C5.83594 12.9438 7.92527 13.9997 10.5026 13.9997V11.6415C10.5026 10.4816 10.5026 9.9017 10.0389 9.5479C9.57515 9.19408 9.11544 9.32642 8.19601 9.59109C6.78641 9.99686 5.83594 10.7631 5.83594 11.6415Z" stroke="#1C1D4D" stroke-linejoin="round"/>
<path d="M18.6693 9.91634C18.6693 12.1715 15.0129 13.9997 10.5026 13.9997C5.99228 13.9997 2.33594 12.1715 2.33594 9.91634C2.33594 7.66117 5.99228 5.83301 10.5026 5.83301C15.0129 5.83301 18.6693 7.66117 18.6693 9.91634Z" stroke="#1C1D4D"/>
<path d="M2.33594 10.5V18.2778C2.33594 20.4255 5.99228 22.1667 10.5026 22.1667H23.3359C24.4359 22.1667 24.9858 22.1667 25.3276 21.825C25.6693 21.4832 25.6693 20.9333 25.6693 19.8333V16.3333C25.6693 15.2334 25.6693 14.6834 25.3276 14.3417C24.9858 14 24.4359 14 23.3359 14H10.5026" stroke="#1C1D4D"/>
<path d="M21 22.1667V19.8333M16.3333 22.1667V19.8333M11.6667 22.1667V19.8333M7 21.5833V19.25" stroke="#1C1D4D" stroke-linecap="round" stroke-linejoin="round"/>
</svg>
